<svg width="454" height="520" viewBox="0 0 454 520" fill="none" xmlns="http://www.w3.org/2000/svg">
<path d="M75.2188 417.707C76.1685 416.61 77.548 415.979 78.999 415.979H398.362C400.128 415.979 401.763 416.911 402.664 418.43L449.248 497.042C451.223 500.375 448.821 504.591 444.947 504.591H10.9421C6.65875 504.591 4.35837 499.556 7.16197 496.318L75.2188 417.707Z" fill="url(#paint0_linear)"/>
<circle cx="228.092" cy="169.838" r="164.095" fill="#FF7676"/>
<path d="M175.581 47.1772C175.581 43.7787 178.336 41.0237 181.735 41.0237H267.064C270.462 41.0237 273.217 43.7787 273.217 47.1772C273.217 50.5757 270.462 53.3308 267.064 53.3308H181.735C178.336 53.3308 175.581 50.5757 175.581 47.1772Z" fill="#C4C4C4"/>
<path d="M244.501 53.7409C244.501 50.3424 247.256 47.5874 250.655 47.5874H284.294C287.692 47.5874 290.447 50.3424 290.447 53.7409C290.447 57.1395 287.692 59.8945 284.294 59.8945H250.655C247.256 59.8945 244.501 57.1395 244.501 53.7409Z" fill="#F4F4F4"/>
<path d="M50.8691 68.5098C50.8691 64.205 54.3589 60.7153 58.6636 60.7153H123.891V76.3043H58.6636C54.3589 76.3043 50.8691 72.8146 50.8691 68.5098Z" fill="#FF7676"/>
<path d="M76.2973 72.2021H121.43V95.9639C121.43 95.9639 55.3719 108.958 76.2973 95.9639C97.2226 82.9696 76.2973 72.2021 76.2973 72.2021Z" fill="#FF7676"/>
<path d="M17.2295 107.892C17.2295 99.9626 23.6579 93.5342 31.5878 93.5342H100.918V122.251H31.5878C23.6579 122.251 17.2295 115.822 17.2295 107.892Z" fill="#FF7676"/>
<path d="M387.264 297.421C387.264 302.633 383.039 306.857 377.828 306.857H317.523V287.986H377.828C383.039 287.986 387.264 292.21 387.264 297.421Z" fill="#FF7676"/>
<path d="M362.861 288.807H319.985V278.906C319.985 278.906 382.74 273.492 362.861 278.906C342.982 284.32 362.861 288.807 362.861 288.807Z" fill="#FF7676"/>
<path d="M402.853 268.705C402.853 274.369 398.261 278.961 392.597 278.961H339.676V258.449H392.597C398.261 258.449 402.853 263.041 402.853 268.705Z" fill="#FF7676"/>
<path d="M191.17 53.7409C191.17 50.3424 193.925 47.5874 197.323 47.5874H230.963C234.361 47.5874 237.116 50.3424 237.116 53.7409C237.116 57.1395 234.361 59.8945 230.963 59.8945H197.323C193.925 59.8945 191.17 57.1395 191.17 53.7409Z" fill="#F4F4F4"/>
<circle cx="84.5089" cy="20.5118" r="14.5118" stroke="#FF7676" stroke-width="12"/>
<rect x="237.617" y="98.9565" width="48.2284" height="48.2284" rx="14.5" fill="#F4F4F4" stroke="#F4F4F4"/>
<rect x="114.545" y="98.9565" width="48.2284" height="48.2284" rx="14.5" fill="#F4F4F4" stroke="#F4F4F4"/>
<rect x="176.081" y="98.9565" width="48.2284" height="48.2284" rx="14.5" fill="#F4F4F4" stroke="#F4F4F4"/>
<path d="M145.281 304.396H214.143L201.304 352.803H131.275L145.281 304.396Z" fill="url(#paint1_linear)"/>
<rect x="97.4336" y="115.479" width="48.2284" height="48.2284" rx="14.5" transform="rotate(-15.7896 97.4336 115.479)" fill="#FF7676" stroke="#F4F4F4"/>
<path d="M147.685 179.761C147.685 176.999 149.923 174.761 152.685 174.761H368.315C371.076 174.761 373.315 176.999 373.315 179.761V261.654C373.315 264.415 371.076 266.654 368.315 266.654H152.685C149.923 266.654 147.685 264.415 147.685 261.654V179.761Z" fill="#CF5E5E"/>
<path d="M133.417 192.888C133.417 190.403 135.432 188.388 137.917 188.388H305.139C307.624 188.388 309.639 190.403 309.639 192.888V200.118C309.639 202.603 307.624 204.618 305.139 204.618H137.917C135.432 204.618 133.417 202.603 133.417 200.118V192.888Z" fill="#C4C4C4" stroke="#F4F4F4"/>
<path d="M107.982 184.684C107.982 182.198 109.997 180.184 112.482 180.184H136.942C139.428 180.184 141.442 182.198 141.442 184.684V209.143C141.442 211.629 139.428 213.643 136.942 213.643H112.482C109.997 213.643 107.982 211.629 107.982 209.143V184.684Z" fill="#F4F4F4" stroke="#F4F4F4"/>
<g filter="url(#filter0_d)">
<path d="M297.832 70.1895C297.832 64.5038 302.441 59.8945 308.127 59.8945H363.021C368.706 59.8945 373.316 64.5038 373.316 70.1895C373.316 75.8753 368.706 80.4845 363.021 80.4845H317.934L292.909 99.2772L305.32 80.4845C301.184 80.4845 297.832 77.1322 297.832 72.9969V70.1895Z" fill="white"/>
</g>
<path d="M255.988 196.503C255.988 195.37 256.907 194.452 258.039 194.452H299.884C301.016 194.452 301.935 195.37 301.935 196.503C301.935 197.636 301.016 198.555 299.884 198.555H258.039C256.907 198.555 255.988 197.636 255.988 196.503Z" fill="#F4F4F4"/>
<path d="M147.685 196.503C147.685 195.37 148.603 194.452 149.736 194.452H246.552C247.684 194.452 248.603 195.37 248.603 196.503C248.603 197.636 247.684 198.555 246.552 198.555H149.736C148.603 198.555 147.685 197.636 147.685 196.503Z" fill="#F4F4F4"/>
<rect x="191.171" y="132.917" width="18.8709" height="2.46142" rx="1.23071" fill="#FF7676"/>
<rect x="191.171" y="135.378" width="22.1528" height="2.46142" rx="1.23071" transform="rotate(-90 191.171 135.378)" fill="#FF7676"/>
<rect x="207.58" y="135.378" width="13.1276" height="2.46142" rx="1.23071" transform="rotate(-90 207.58 135.378)" fill="#FF7676"/>
<rect x="191.171" y="113.226" width="10.6661" height="2.46142" rx="1.23071" fill="#FF7676"/>
<rect width="15.6905" height="2.35357" rx="1.17679" transform="matrix(0.694713 -0.719287 0.694713 0.719287 199.376 123.02)" fill="#FF7676"/>
<rect width="9.62152" height="1.94639" rx="0.973197" transform="matrix(0 -1 0.998619 -0.0525272 210.112 121.379)" fill="#FF7676"/>
<rect width="9.4059" height="2.01488" rx="1.00744" transform="matrix(1 0 -0.0490082 0.998798 202.694 111.585)" fill="#FF7676"/>
<path d="M56.6123 107.892C56.6123 104.494 59.3673 101.739 62.7659 101.739H96.4052C99.8038 101.739 102.559 104.494 102.559 107.892C102.559 111.291 99.8037 114.046 96.4052 114.046H62.7658C59.3673 114.046 56.6123 111.291 56.6123 107.892Z" fill="#CF5E5E"/>
<path d="M177.223 160.403C177.223 157.004 179.978 154.249 183.376 154.249H217.016C220.414 154.249 223.169 157.004 223.169 160.403C223.169 163.801 220.414 166.556 217.016 166.556H183.376C179.978 166.556 177.223 163.801 177.223 160.403Z" fill="#CF5E5E"/>
<path d="M240.398 160.403C240.398 157.004 243.153 154.249 246.552 154.249H280.191C283.59 154.249 286.345 157.004 286.345 160.403C286.345 163.801 283.59 166.556 280.191 166.556H246.552C243.153 166.556 240.398 163.801 240.398 160.403Z" fill="#CF5E5E"/>
<circle cx="261.731" cy="123.071" r="14.1275" fill="#FF7676" stroke="#FF7676" stroke-width="2"/>
<path d="M261.73 120.665L262.914 120.987C267.899 122.347 271.357 126.875 271.357 132.042C268.99 134.687 265.609 136.199 262.06 136.199H261.73C258.099 136.199 254.601 134.678 252.104 132.042C252.104 127.09 255.308 122.708 260.026 121.207L261.73 120.665Z" fill="#F4F4F4"/>
<path d="M267.2 117.382C267.2 120.403 264.751 122.852 261.731 122.852C258.71 122.852 256.261 120.403 256.261 117.382C256.261 114.361 258.71 111.912 261.731 111.912C264.751 111.912 267.2 114.361 267.2 117.382Z" fill="#F4F4F4"/>
<path d="M406.545 478.746C412.313 476.183 415.546 474.746 421.314 472.183C423.396 473.152 425.544 479.288 429.518 491.053L413.929 497.206L411.058 493.925L410.237 497.206C401.883 502.902 395.884 505.049 382.751 506.642C381.597 502.988 380.979 500.901 381.521 495.155C387.053 491.162 390.221 489.911 395.879 487.771L402.033 478.746L406.545 478.746Z" fill="#CE9C5A"/>
<path d="M382.341 504.591L426.646 486.541" stroke="#636363"/>
<path d="M418.442 489.822C417.511 484.54 418.353 482.141 425.006 479.977" stroke="#636363"/>
<path d="M356.606 485.864C362.904 485.463 366.436 485.237 372.734 484.836C374.351 486.468 374.234 492.968 373.877 505.381L357.122 505.739L355.568 501.665L353.659 504.458C343.847 506.898 337.475 506.829 324.607 503.764C324.793 499.936 324.938 497.765 327.441 492.564C334.015 490.74 337.421 490.667 343.47 490.624L352.374 484.297L356.606 485.864Z" fill="#CE9C5A"/>
<path d="M324.935 501.698L372.751 500.153" stroke="#636363"/>
<path d="M363.917 500.382C364.878 495.104 366.501 493.147 373.491 493.427" stroke="#636363"/>
<path d="M406.545 478.746C412.313 476.183 415.546 474.746 421.314 472.183C423.396 473.152 425.544 479.288 429.518 491.053L413.929 497.206L411.058 493.925L410.237 497.206C401.883 502.902 395.884 505.049 382.751 506.642C381.597 502.988 380.979 500.901 381.521 495.155C387.053 491.162 390.221 489.911 395.879 487.771L402.033 478.746L406.545 478.746Z" fill="#CE9C5A"/>
<path d="M382.341 504.591L426.646 486.541" stroke="#636363"/>
<path d="M418.442 489.822C417.511 484.54 418.353 482.141 425.006 479.977" stroke="#636363"/>
<path d="M356.606 485.864C362.904 485.463 366.436 485.237 372.734 484.836C374.351 486.468 374.234 492.968 373.877 505.381L357.122 505.739L355.568 501.665L353.659 504.458C343.847 506.898 337.475 506.829 324.607 503.764C324.793 499.936 324.938 497.765 327.441 492.564C334.015 490.74 337.421 490.667 343.47 490.624L352.374 484.297L356.606 485.864Z" fill="#CE9C5A"/>
<path d="M324.935 501.698L372.751 500.153" stroke="#636363"/>
<path d="M363.917 500.382C364.878 495.104 366.501 493.147 373.491 493.427" stroke="#636363"/>
<path d="M400.803 107.539C408.365 120.74 407.386 124.836 406.956 132.974C404.822 142.67 402.9 146.421 398.751 151.434C400.388 157 401.122 160.132 402.033 165.793L374.137 175.638C374.242 170.465 374.274 167.494 374.137 161.69C362.654 171.496 359.222 170.783 356.907 161.69C355.542 155.783 356.087 148.152 356.087 148.152L352.111 147.489C351.582 147.401 351.213 146.909 351.336 146.387C352.029 143.445 354.075 140.728 354.446 140.358C354.856 139.948 353.452 115.961 355.266 114.103C359.221 109.284 362.3 107.001 369.625 103.847C385.301 98.1349 392.285 98.6327 400.803 107.539Z" fill="#E5C59A"/>
<path d="M376.53 102.235C398.634 96.6603 402.375 110.439 403.196 112.901C404.016 115.363 405.247 134.644 405.247 134.644L378.581 129.311L378.171 120.285L363.813 119.465C355.71 119.416 351.601 118.868 349.455 111.67C348.499 107.312 348.405 105.74 349.455 103.466C350.338 101.047 352.773 101.863 357.249 103.466L376.53 102.235Z" fill="#343434"/>
<path d="M401.623 106.719C409.186 119.92 408.207 124.015 407.777 132.153C405.642 141.849 399.572 150.614 399.572 150.614H393.419L385.624 127.173L356.087 113.225C356.087 113.225 363.121 106.181 370.445 103.027C386.122 97.3146 393.106 97.8123 401.623 106.719Z" fill="#343434"/>
<path d="M411.155 287.166L416.801 376.187L421.131 465.135C421.239 467.364 419.858 469.395 417.745 470.113L399.571 476.285L390.957 387.263L385.213 327.779L373.316 484.079L363.058 483.896C355.999 483.77 350.343 478.011 350.343 470.951L348.702 439.363V413.518L352.805 293.319L411.155 287.166Z" fill="#414F64"/>
<path d="M412.387 287.166L418.033 376.187L422.357 465.015C422.468 467.3 421.014 469.369 418.826 470.039L402.444 475.054V447.568L394.65 386.033L386.445 327.779L374.548 484.079H364.51C361.341 484.079 358.425 482.348 356.908 479.566C356.793 472.809 356.68 467.326 356.791 461.285C357.089 445.108 360.446 406.69 359.369 390.545C356.908 353.624 358.438 333.117 352.806 293.319L412.387 287.166Z" fill="#556A8A"/>
<path d="M400.003 166.556C403.942 166.556 407.733 168.058 410.603 170.756L419.612 179.224C424.194 183.531 427.362 189.127 428.698 195.273C424.372 199.185 422.116 201.786 419.873 207.569C419.593 208.292 418.634 208.466 418.137 207.87L413.109 201.836V235.066L410.658 261.624C410.651 261.695 410.652 261.767 410.661 261.838L414.967 296.676C415.048 297.331 414.355 297.802 413.776 297.487C411.734 296.373 409.415 295.869 407.094 296.034L404.905 296.191L390.546 299.063C380.327 301.786 372.242 302.005 354.341 299.465C352.785 299.244 351.665 297.85 351.782 296.282L356.087 238.758L369.624 225.63C362.806 221.348 358.269 219.416 348.831 217.604C348.302 217.503 347.945 217.003 348.024 216.47L348.783 211.376C350.073 202.716 353.681 194.567 359.225 187.791C363.38 182.712 368.521 178.529 374.339 175.494L379.617 172.74C382.792 171.084 386.135 169.773 389.59 168.831L395.931 167.101C397.258 166.74 398.628 166.556 400.003 166.556Z" fill="#00B27D"/>
<path d="M353.625 213.733C361.771 214.98 365.741 216.532 372.086 220.297C367.403 232.761 363.959 239.864 358.612 250.539C357.335 253.087 354.569 254.854 351.861 253.964C350.432 253.495 349.02 252.746 347.061 251.475C338.781 244.634 333.453 239.47 317.114 217.015C315.529 214.315 314.764 212.754 314.242 209.631C315.371 207.457 316.399 206.76 319.165 206.759L322.857 208.81L329.421 216.605L345.408 232.193C345.679 232.457 346.042 232.604 346.42 232.604C347.047 232.604 347.603 232.201 347.797 231.604L353.625 213.733Z" fill="#E5C59A"/>
<path d="M399.928 166.556C404.174 166.556 408.257 168.198 411.322 171.137L419.679 179.153C424.221 183.51 427.361 189.122 428.698 195.273C424.372 199.185 422.116 201.786 419.873 207.569C419.593 208.292 418.634 208.466 418.137 207.87L413.109 201.836C413.655 198.345 412.031 193.595 409.828 192.811C411.107 195.025 412.634 200.278 413.109 203.888V218.451V235.066L410.658 261.624C410.651 261.695 410.652 261.767 410.661 261.838L414.967 296.676C415.048 297.331 414.355 297.802 413.776 297.487C411.734 296.373 409.415 295.869 407.094 296.034L405.26 296.165C405.024 296.182 404.789 296.22 404.559 296.279L380.701 302.344C361.6 299.644 364.609 292.51 365.522 277.73C376.004 262.108 382.841 254.805 384.393 225.63C383.544 218.712 382.636 215.855 375.778 214.554L371.676 225.63C364.855 221.347 358.395 219.416 348.831 217.603C348.302 217.503 347.945 217.003 348.024 216.47L349.063 209.496C350.175 202.025 352.81 194.774 357.574 188.913C368.885 175 379.487 169.491 397.58 166.73C398.354 166.611 399.144 166.556 399.928 166.556Z" fill="#00CB8E"/>
<path d="M418.248 207.665C422.17 200.416 422.41 200.06 428.094 195.358C440.107 208.661 440 211.255 443.079 222.934C443.206 223.415 443.286 223.915 443.303 224.412C443.582 232.689 441.878 239.473 438.35 242.161C433.017 248.315 426.864 251.187 419.069 255.289C416.608 256.071 415.787 256.93 413.736 258.16C412.095 258.533 412.505 258.534 410.454 258.534C409.077 257.284 408.417 256.508 408.813 254.058C409.975 251.364 410.863 249.847 412.272 248.579C412.862 248.048 412.765 247.039 412.068 246.658C408.388 244.647 410.049 243.355 413.325 243.355L419.889 242.945L421.097 242.286C425.916 239.658 428.915 234.607 428.915 229.118L428.915 228.936C428.915 227.102 428.596 225.276 427.877 223.59C425.487 217.989 422.903 214.11 418.248 207.665Z" fill="#E5C59A"/>
<path d="M380.071 143.583C371.567 158.252 366.679 171.596 358.142 174.287C356.245 174.886 354.661 176.704 354.989 178.666C358.745 201.193 347.901 206.349 344.791 206.349C341.509 206.349 348.828 197.917 358.739 199.375C352.324 188.124 344.481 233.07 354.226 243.27C363.972 253.471 358.329 285.115 360.79 289.627C363.252 294.14 371.456 289.627 367.354 288.807C363.252 287.986 361.826 296.207 364.072 305.216L369.405 308.498" stroke="black"/>
<path d="M389.915 137.444C387.936 142.647 383.418 145.757 379.823 144.39C376.229 143.023 374.92 137.696 376.899 132.493C378.878 127.289 383.396 124.18 386.99 125.547C390.585 126.914 391.894 132.24 389.915 137.444Z" fill="#0155D3"/>
<path d="M389.915 137.444C387.936 142.647 383.418 145.757 379.823 144.39C376.229 143.023 374.92 137.696 376.899 132.493C378.878 127.289 383.396 124.18 386.99 125.547C390.585 126.914 391.894 132.24 389.915 137.444Z" fill="#0155D3"/>
<path d="M387.966 137.401C386.661 140.832 383.722 142.897 381.402 142.015C379.082 141.132 378.258 137.636 379.563 134.206C380.868 130.775 383.807 128.71 386.127 129.592C388.447 130.475 389.27 133.971 387.966 137.401Z" fill="#003E9A"/>
<path d="M387.966 137.401C386.661 140.832 383.722 142.897 381.402 142.015C379.082 141.132 378.258 137.636 379.563 134.206C380.868 130.775 383.807 128.71 386.127 129.592C388.447 130.475 389.27 133.971 387.966 137.401Z" fill="#003E9A"/>
<path d="M390.167 100.537C390.295 99.7047 391.331 99.3855 391.9 100.006L394.673 103.031C394.875 103.252 394.967 103.555 394.924 103.851C393.514 113.553 391.738 118.787 388.694 128.04L384.255 126.992C386.998 117.25 388.506 111.332 390.167 100.537Z" fill="#0155D3"/>
<path d="M400.803 107.539C408.365 120.74 407.386 124.836 406.956 132.974C404.822 142.67 402.9 146.421 398.751 151.434C400.388 157 401.122 160.132 402.033 165.793L374.137 175.638C374.242 170.465 374.274 167.494 374.137 161.69C362.654 171.496 359.222 170.783 356.907 161.69C355.542 155.783 356.087 148.152 356.087 148.152L352.111 147.489C351.582 147.401 351.213 146.909 351.336 146.387C352.029 143.445 354.075 140.728 354.446 140.358C354.856 139.948 353.452 115.961 355.266 114.103C359.221 109.284 362.3 107.001 369.625 103.847C385.301 98.1349 392.285 98.6327 400.803 107.539Z" fill="#E5C59A"/>
<path d="M376.53 102.235C398.634 96.6603 402.375 110.439 403.196 112.901C404.016 115.363 405.247 134.644 405.247 134.644L378.581 129.311L378.171 120.285L363.813 119.465C355.71 119.416 351.601 118.868 349.455 111.67C348.499 107.312 348.405 105.74 349.455 103.466C350.338 101.047 352.773 101.863 357.249 103.466L376.53 102.235Z" fill="#343434"/>
<path d="M401.623 106.719C409.186 119.92 408.207 124.015 407.777 132.153C405.642 141.849 399.572 150.614 399.572 150.614H393.419L385.624 127.173L356.087 113.225C356.087 113.225 363.121 106.181 370.445 103.027C386.122 97.3146 393.106 97.8123 401.623 106.719Z" fill="#343434"/>
<path d="M411.155 287.166L416.801 376.187L421.131 465.135C421.239 467.364 419.858 469.395 417.745 470.113L399.571 476.285L390.957 387.263L385.213 327.779L373.316 484.079L363.058 483.896C355.999 483.77 350.343 478.011 350.343 470.951L348.702 439.363V413.518L352.805 293.319L411.155 287.166Z" fill="#414F64"/>
<path d="M412.387 287.166L418.033 376.187L422.357 465.015C422.468 467.3 421.014 469.369 418.826 470.039L402.444 475.054V447.568L394.65 386.033L386.445 327.779L374.548 484.079H364.51C361.341 484.079 358.425 482.348 356.908 479.566C356.793 472.809 356.68 467.326 356.791 461.285C357.089 445.108 360.446 406.69 359.369 390.545C356.908 353.624 358.438 333.117 352.806 293.319L412.387 287.166Z" fill="#556A8A"/>
<path d="M418.248 207.665C422.17 200.416 422.41 200.06 428.094 195.358C440.107 208.661 440 211.255 443.079 222.934C443.206 223.415 443.286 223.915 443.303 224.412C443.582 232.689 441.878 239.473 438.35 242.161C433.017 248.315 426.864 251.187 419.069 255.289C416.608 256.071 415.787 256.93 413.736 258.16C412.095 258.533 412.505 258.534 410.454 258.534C409.077 257.284 408.417 256.508 408.813 254.058C409.975 251.364 410.863 249.847 412.272 248.579C412.862 248.048 412.765 247.039 412.068 246.658C408.388 244.647 410.049 243.355 413.325 243.355L419.889 242.945L421.097 242.286C425.916 239.658 428.915 234.607 428.915 229.118L428.915 228.936C428.915 227.102 428.596 225.276 427.877 223.59C425.487 217.989 422.903 214.11 418.248 207.665Z" fill="#E5C59A"/>
<path d="M400.003 166.556C403.942 166.556 407.733 168.058 410.603 170.756L419.612 179.224C424.194 183.531 427.362 189.127 428.698 195.273C424.372 199.185 422.116 201.786 419.873 207.569C419.593 208.292 418.634 208.466 418.137 207.87L413.109 201.836V235.066L410.658 261.624C410.651 261.695 410.652 261.767 410.661 261.838L414.967 296.676C415.048 297.331 414.355 297.802 413.776 297.487C411.734 296.373 409.415 295.869 407.094 296.034L404.905 296.191L390.546 299.063C380.327 301.786 372.242 302.005 354.341 299.465C352.785 299.244 351.665 297.85 351.782 296.282L356.087 238.758L369.624 225.63C362.806 221.348 358.269 219.416 348.831 217.604C348.302 217.503 347.945 217.003 348.024 216.47L348.783 211.376C350.073 202.716 353.681 194.567 359.225 187.791C363.38 182.712 368.521 178.529 374.339 175.494L379.617 172.74C382.792 171.084 386.135 169.773 389.59 168.831L395.931 167.101C397.258 166.74 398.628 166.556 400.003 166.556Z" fill="#00B27D"/>
<path d="M380.071 143.583C371.567 158.252 366.679 171.596 358.142 174.287C356.245 174.886 354.661 176.704 354.989 178.666C358.745 201.193 347.901 206.349 344.791 206.349C341.509 206.349 348.828 197.917 358.739 199.375C352.324 188.124 344.481 233.07 354.226 243.27C363.972 253.471 358.329 285.115 360.79 289.627C363.252 294.14 367.162 297.011 363.06 296.191C358.958 295.37 361.826 296.207 364.072 305.216L369.405 308.498" stroke="black"/>
<path d="M334.344 204.298C334.56 208.913 333.67 211.43 333.113 215.785C328.11 221.092 325.227 220.587 319.986 215.785L319.165 204.298H334.344Z" fill="white"/>
<path d="M353.625 213.734C361.771 214.981 365.741 216.532 372.086 220.298C367.403 232.761 363.959 239.864 358.612 250.539C357.335 253.088 354.569 254.854 351.861 253.965C350.432 253.496 349.02 252.747 347.061 251.476C338.781 244.635 333.453 239.471 317.114 217.016C315.529 214.316 314.764 212.754 314.242 209.631C315.371 207.457 316.399 206.76 319.165 206.76L322.857 208.811L329.421 216.605L345.408 232.193C345.679 232.457 346.042 232.605 346.42 232.605C347.047 232.605 347.603 232.201 347.797 231.605L353.625 213.734Z" fill="#E5C59A"/>
<path d="M322.053 206.405V208.456L320.822 207.634C319.109 207.326 318.593 207.525 318.361 208.456C318.69 210.376 319.025 210.665 319.592 211.327L319.181 211.737C319.181 211.737 316.479 209.532 316.719 208.456C316.959 207.38 318.245 204.915 322.053 206.405Z" fill="white"/>
<path d="M399.928 166.556C404.174 166.556 408.257 168.198 411.322 171.137L419.679 179.153C424.221 183.51 427.361 189.122 428.698 195.273C424.372 199.185 422.116 201.786 419.873 207.569C419.593 208.292 418.634 208.466 418.137 207.87L413.109 201.836C413.655 198.345 412.031 193.595 409.828 192.811C411.107 195.025 412.634 200.278 413.109 203.888V218.451V235.066L410.658 261.624C410.651 261.695 410.652 261.767 410.661 261.838L414.967 296.676C415.048 297.331 414.355 297.802 413.776 297.487C411.734 296.373 409.415 295.869 407.094 296.034L405.26 296.165C405.024 296.182 404.789 296.22 404.559 296.279L380.701 302.344C361.6 299.644 363.379 292.921 364.291 278.14C374.774 262.518 382.841 254.805 384.393 225.63C383.544 218.712 382.636 215.855 375.778 214.554L371.676 225.63C364.855 221.347 358.395 219.416 348.831 217.603C348.302 217.503 347.945 217.003 348.024 216.47L349.063 209.496C350.175 202.025 352.81 194.774 357.574 188.913C368.885 175 379.487 169.491 397.58 166.73C398.354 166.611 399.144 166.556 399.928 166.556Z" fill="#00CB8E"/>
<path d="M389.915 137.444C387.936 142.647 383.418 145.757 379.823 144.39C376.229 143.023 374.92 137.696 376.899 132.493C378.878 127.289 383.396 124.18 386.99 125.547C390.585 126.914 391.894 132.24 389.915 137.444Z" fill="#0155D3"/>
<path d="M389.915 137.444C387.936 142.647 383.418 145.757 379.823 144.39C376.229 143.023 374.92 137.696 376.899 132.493C378.878 127.289 383.396 124.18 386.99 125.547C390.585 126.914 391.894 132.24 389.915 137.444Z" fill="#0155D3"/>
<path d="M387.966 137.401C386.661 140.832 383.722 142.897 381.402 142.015C379.082 141.132 378.258 137.636 379.563 134.206C380.868 130.775 383.807 128.71 386.127 129.592C388.447 130.475 389.27 133.971 387.966 137.401Z" fill="#003E9A"/>
<path d="M387.966 137.401C386.661 140.832 383.722 142.897 381.402 142.015C379.082 141.132 378.258 137.636 379.563 134.206C380.868 130.775 383.807 128.71 386.127 129.592C388.447 130.475 389.27 133.971 387.966 137.401Z" fill="#003E9A"/>
<path d="M390.167 100.537C390.295 99.7047 391.331 99.3855 391.9 100.006L394.673 103.031C394.875 103.252 394.967 103.555 394.924 103.851C393.514 113.553 391.738 118.787 388.694 128.04L384.255 126.992C386.998 117.25 388.506 111.332 390.167 100.537Z" fill="#0155D3"/>
<path d="M112.381 442.713L125.083 457.602C124.362 457.626 123.326 457.688 122.048 457.779C119.459 457.964 115.856 458.275 111.824 458.66C103.789 459.427 94.0323 460.488 87.1627 461.433C80.1709 460.257 74.8112 457.807 71.1993 455.652C69.387 454.57 68.0153 453.563 67.0992 452.829C66.6413 452.462 66.2973 452.163 66.0692 451.957C65.9689 451.867 65.891 451.794 65.8357 451.742L63.5065 441.494C63.4183 440.887 63.2269 440.048 63.0142 439.115C62.9277 438.736 62.8377 438.341 62.7497 437.94C62.4371 436.517 62.1398 434.98 62.0575 433.621C61.9732 432.229 62.1253 431.161 62.5748 430.563C62.7833 430.286 63.0649 430.098 63.4671 430.022C63.8634 429.948 64.3995 429.981 65.1159 430.193L75.8543 440.931C75.8759 440.962 75.8942 440.982 75.8998 440.988L75.8998 440.988C75.9481 441.04 75.9969 441.07 76.014 441.081C76.0377 441.095 76.0594 441.106 76.075 441.113C76.1318 441.141 76.202 441.166 76.2666 441.187C76.4056 441.233 76.6083 441.29 76.8582 441.352C77.3605 441.477 78.0785 441.626 78.9069 441.744C80.5304 441.975 82.6467 442.093 84.3959 441.608L104.146 440.668L112.381 442.713Z" fill="url(#paint2_linear)" stroke="#3DA100"/>
<path d="M135.991 438.941C136.667 440.794 137.305 442.487 139.111 443.524C141.093 444.661 144.392 444.969 150.475 444.287L150.534 444.28L150.589 444.26C152.878 443.432 154.677 441.044 156.028 438.506C157.377 435.969 158.343 433.155 158.925 431.222C159.306 430.633 159.632 430.296 159.893 430.126C160.144 429.963 160.307 429.969 160.43 430.014C160.585 430.071 160.783 430.232 161.001 430.567C161.215 430.894 161.417 431.34 161.602 431.88C162.347 434.057 162.699 437.428 162.699 439.53L135.991 438.941ZM135.991 438.941C133.542 440.855 130.527 442.078 123.784 444.205C123.019 445.671 122.697 446.83 122.635 447.821C122.57 448.848 122.784 449.732 123.132 450.636C123.317 451.113 123.546 451.605 123.79 452.13C124.456 453.558 125.232 455.224 125.505 457.456L125.528 457.651L125.413 457.81C124.702 458.792 124.288 459.6 124.117 460.253C123.948 460.895 124.02 461.356 124.237 461.706C124.463 462.069 124.896 462.396 125.614 462.655C126.329 462.912 127.279 463.085 128.464 463.172C133.21 463.52 141.273 462.477 151.653 460.827C153.394 459.67 154.708 458.887 155.746 458.273L155.863 458.203C156.864 457.611 157.574 457.191 158.175 456.732C159.378 455.813 160.162 454.727 161.778 451.667C162.738 447.132 162.724 444.503 162.705 441.072C162.702 440.577 162.699 440.066 162.699 439.53L135.991 438.941Z" fill="url(#paint3_linear)" stroke="#3DA100"/>
<path d="M103.942 455.935L104.068 455.851L104.125 455.71C104.539 454.699 105.09 453.759 105.712 452.794C105.951 452.424 106.205 452.043 106.465 451.653C106.87 451.046 107.29 450.416 107.693 449.766C108.973 447.699 110.176 445.279 110.708 441.915C117.377 443.244 121.208 443.4 127.518 442.797C129.05 445.751 129.302 447.88 129.1 449.954C128.994 451.036 128.764 452.108 128.508 453.303L128.502 453.331C128.246 454.523 127.969 455.824 127.784 457.322C127.452 458.616 126.498 460.106 125.035 461.707C123.569 463.312 121.631 464.987 119.41 466.639C115.001 469.919 109.518 473.074 104.511 475.37C99.37 475.131 96.6745 474.671 94.8553 473.578C93.0604 472.501 92.0562 470.773 90.4355 467.704V450.366C90.6469 449.368 90.8795 448.64 91.1461 448.131C91.4143 447.618 91.6932 447.371 91.9787 447.264C92.2711 447.154 92.6656 447.155 93.2372 447.337C93.7901 447.513 94.4579 447.844 95.275 448.326C97.856 451.773 99.5785 453.881 100.816 455.027C101.436 455.601 101.98 455.979 102.489 456.138C103.039 456.31 103.522 456.219 103.942 455.935Z" fill="url(#paint4_linear)" stroke="#3DA100"/>
<path d="M108.436 354.914L121.418 370.301C121.812 370.768 122.296 371.161 122.828 371.463C151.545 387.768 161.097 418.61 139.056 437.837C118.799 447.83 104.975 449.671 82.4018 440.117C63.7932 429.317 57.6392 406.123 83.8219 378.582L98.4959 356.334C101.188 352.161 105.448 351.687 108.436 354.914Z" fill="url(#paint5_linear)"/>
<path d="M84.1843 378.926L84.2149 378.894L84.2393 378.857L98.9133 356.61L98.916 356.605C100.203 354.61 101.825 353.558 103.421 353.345C105.007 353.133 106.661 353.738 108.062 355.246L121.036 370.623C121.471 371.139 122.001 371.568 122.581 371.898C136.849 379.999 146.312 391.687 149.493 403.683C152.663 415.637 149.61 427.938 138.776 437.418C128.7 442.383 120.265 445.299 111.568 445.808C102.866 446.317 93.8537 444.418 82.6257 439.669C73.4524 434.335 67.3943 425.981 66.8143 415.599C66.233 405.194 71.1484 392.638 84.1843 378.926Z" stroke="#E5C59A" stroke-opacity="0.35"/>
<path d="M150.525 408.659C149.578 432.8 136.05 438.48 116.444 438.48C92.3028 438.48 80.9424 425.651 80.9424 408.659C80.9424 391.666 96.8368 377.417 116.444 377.417C136.05 377.417 149.105 394.458 150.525 408.659Z" fill="#FFF8EE"/>
<path d="M150.024 408.674C149.548 420.632 145.967 427.908 140.183 432.221C134.365 436.559 126.219 437.98 116.444 437.98C104.459 437.98 95.7171 434.796 89.9767 429.572C84.241 424.352 81.4424 417.04 81.4424 408.659C81.4424 391.998 97.0539 377.917 116.444 377.917C135.724 377.917 148.606 394.679 150.024 408.674Z" stroke="#B8A87F" stroke-opacity="0.41"/>
<ellipse cx="105.556" cy="399.254" rx="5.20685" ry="4.26015" fill="black"/>
<path d="M106.977 414.401C106.977 416.754 101.368 418.661 95.6164 418.661C89.8651 418.661 86.1494 416.754 86.1494 414.401C86.1494 412.048 88.9184 410.141 94.6697 410.141C100.421 410.141 106.977 412.048 106.977 414.401Z" fill="#FFACAC"/>
<path d="M148.953 413.143C148.953 413.143 145.187 414.808 144.6 411.255C143.677 405.67 147.863 406.544 147.863 406.544C148.695 407.109 149.48 411.264 148.953 413.143Z" fill="#FFACAC"/>
<path d="M143.519 401.18C142.86 401.605 141.406 400.526 140.272 398.769C139.137 397.012 138.506 393.526 139.165 393.1C139.824 392.675 141.343 394.657 142.478 396.414C143.612 398.171 144.178 400.754 143.519 401.18Z" fill="black"/>
<path d="M114.266 407.845C117.108 408.984 119.397 409.602 121.505 409.415C123.746 409.215 125.701 408.114 127.852 405.978C129.917 407.5 131.657 408.329 133.49 408.27C135.161 408.216 136.816 407.428 138.777 405.979C137.738 415.616 136.154 421.451 134.161 424.947C133.131 426.754 132 427.922 130.789 428.673C129.592 429.415 128.285 429.769 126.86 429.901C124.974 429.697 123.492 429.33 122.262 428.637C121.031 427.944 120.014 426.902 119.102 425.282C117.316 422.107 115.983 416.808 114.266 407.845Z" fill="#C5186B" stroke="black"/>
<path d="M105.072 352.869C107.639 365.606 109.73 371.279 114.93 378.089" stroke="#B8A87F" stroke-opacity="0.41"/>
<path d="M118.811 445.107C118.811 445.107 126.578 441.947 127.976 437.546" stroke="#B8A87F" stroke-opacity="0.41"/>
<defs>
<filter id="filter0_d" x="292.909" y="59.8945" width="88.4063" height="47.3827" filterUnits="userSpaceOnUse" color-interpolation-filters="sRGB">
<feFlood flood-opacity="0" result="BackgroundImageFix"/>
<feColorMatrix in="SourceAlpha" type="matrix" values="0 0 0 0 0 0 0 0 0 0 0 0 0 0 0 0 0 0 127 0"/>
<feOffset dx="4" dy="4"/>
<feGaussianBlur stdDeviation="2"/>
<feColorMatrix type="matrix" values="0 0 0 0 0 0 0 0 0 0 0 0 0 0 0 0 0 0 0.25 0"/>
<feBlend mode="normal" in2="BackgroundImageFix" result="effect1_dropShadow"/>
<feBlend mode="normal" in="SourceGraphic" in2="effect1_dropShadow" result="shape"/>
</filter>
<linearGradient id="paint0_linear" x1="227.271" y1="397.519" x2="227.271" y2="520.18" gradientUnits="userSpaceOnUse">
<stop stop-color="#F25E5E"/>
<stop offset="1" stop-color="#F25E5E" stop-opacity="0"/>
</linearGradient>
<linearGradient id="paint1_linear" x1="184.964" y1="305.606" x2="179.011" y2="353.585" gradientUnits="userSpaceOnUse">
<stop stop-color="#CF5E5E"/>
<stop offset="1" stop-color="#D57575"/>
</linearGradient>
<linearGradient id="paint2_linear" x1="97.5097" y1="451.734" x2="66.2687" y2="468.301" gradientUnits="userSpaceOnUse">
<stop stop-color="#4BC700"/>
<stop offset="1" stop-color="#5EC8A8"/>
</linearGradient>
<linearGradient id="paint3_linear" x1="126.857" y1="443.213" x2="164.725" y2="435.64" gradientUnits="userSpaceOnUse">
<stop stop-color="#4BC700"/>
<stop offset="1" stop-color="#8DE755"/>
</linearGradient>
<linearGradient id="paint4_linear" x1="121.177" y1="446.054" x2="93.7223" y2="478.715" gradientUnits="userSpaceOnUse">
<stop stop-color="#4BC700"/>
<stop offset="1" stop-color="#83E448"/>
</linearGradient>
<linearGradient id="paint5_linear" x1="100.35" y1="346.65" x2="115.497" y2="446.527" gradientUnits="userSpaceOnUse">
<stop stop-color="#FFF6DF"/>
<stop offset="1" stop-color="#D8CFB9"/>
</linearGradient>
</defs>
</svg>
