<svg width="440" height="500" viewBox="0 0 440 500" fill="none" xmlns="http://www.w3.org/2000/svg">
<ellipse cx="220.126" cy="471.165" rx="162.501" ry="28.8347" fill="url(#paint0_linear)"/>
<rect x="47.9746" y="38.2344" width="38.2346" height="38.2346" transform="rotate(-180 47.9746 38.2344)" fill="url(#paint1_linear)"/>
<rect x="47.9746" y="88.5547" width="38.2346" height="38.2346" transform="rotate(-180 47.9746 88.5547)" fill="url(#paint2_linear)"/>
<rect x="116.062" y="279.196" width="20.2904" height="3.65227" transform="rotate(-90 116.062 279.196)" fill="#F4F4F4"/>
<rect x="119.714" y="299.486" width="20.2904" height="3.65227" transform="rotate(-90 119.714 299.486)" fill="#F4F4F4"/>
<rect x="116.062" y="76.292" width="20.2904" height="3.65227" transform="rotate(-90 116.062 76.292)" fill="#F4F4F4"/>
<rect x="119.714" y="96.582" width="20.2904" height="3.65227" transform="rotate(-90 119.714 96.582)" fill="#F4F4F4"/>
<rect x="119.714" y="56.0015" width="20.2904" height="3.65227" transform="rotate(-90 119.714 56.0015)" fill="#F4F4F4"/>
<rect x="116.062" y="157.454" width="20.2904" height="3.65227" transform="rotate(-90 116.062 157.454)" fill="#F4F4F4"/>
<rect x="119.714" y="177.744" width="20.2904" height="3.65227" transform="rotate(-90 119.714 177.744)" fill="#F4F4F4"/>
<rect x="116.062" y="116.873" width="20.2904" height="3.65227" transform="rotate(-90 116.062 116.873)" fill="#F4F4F4"/>
<rect x="119.714" y="137.163" width="20.2904" height="3.65227" transform="rotate(-90 119.714 137.163)" fill="#F4F4F4"/>
<rect x="116.062" y="238.615" width="20.2904" height="3.65227" transform="rotate(-90 116.062 238.615)" fill="#F4F4F4"/>
<rect x="119.714" y="258.905" width="20.2904" height="3.65227" transform="rotate(-90 119.714 258.905)" fill="#F4F4F4"/>
<rect x="116.062" y="198.034" width="20.2904" height="3.65227" transform="rotate(-90 116.062 198.034)" fill="#F4F4F4"/>
<rect x="119.714" y="218.325" width="20.2904" height="3.65227" transform="rotate(-90 119.714 218.325)" fill="#F4F4F4"/>
<rect x="34.8994" y="280.007" width="13.2177" height="2.43485" rx="1.21742" fill="#326BC0"/>
<rect x="9.73926" y="99.0171" width="38.146" height="2.43485" rx="1.21742" fill="#326BC0"/>
<rect x="9.73926" y="120.119" width="38.146" height="2.43485" rx="1.21742" fill="#326BC0"/>
<rect x="9.73926" y="109.568" width="38.146" height="2.43485" rx="1.21742" fill="#326BC0"/>
<rect x="9.73926" y="130.67" width="38.146" height="2.43485" rx="1.21742" fill="#326BC0"/>
<rect x="9.73926" y="141.221" width="38.146" height="2.43485" rx="1.21742" fill="#326BC0"/>
<rect x="361.98" y="13.7971" width="30.8414" height="5.68131" rx="2.84066" fill="#326BC0"/>
<rect x="361.98" y="34.8994" width="30.8414" height="5.68131" rx="2.84066" fill="#326BC0"/>
<rect x="361.98" y="24.3481" width="30.8414" height="5.68131" rx="2.84066" fill="#326BC0"/>
<rect x="361.98" y="45.4502" width="30.8414" height="5.68131" rx="2.84066" fill="#326BC0"/>
<rect x="361.98" y="66.5522" width="30.8414" height="5.68131" rx="2.84066" fill="#326BC0"/>
<rect x="361.98" y="56.0015" width="30.8414" height="5.68131" rx="2.84066" fill="#326BC0"/>
<rect x="397.691" y="13.7971" width="6.49293" height="5.68131" rx="2.84066" fill="#326BC0"/>
<rect x="397.691" y="34.8994" width="6.49293" height="5.68131" rx="2.84066" fill="#326BC0"/>
<rect x="397.691" y="24.3481" width="6.49293" height="5.68131" rx="2.84066" fill="#326BC0"/>
<rect x="397.691" y="45.4502" width="6.49293" height="5.68131" rx="2.84066" fill="#326BC0"/>
<rect x="397.691" y="66.5522" width="6.49293" height="5.68131" rx="2.84066" fill="#326BC0"/>
<rect x="397.691" y="56.0015" width="6.49293" height="5.68131" rx="2.84066" fill="#326BC0"/>
<circle cx="219.948" cy="163.135" r="162.323" fill="url(#paint3_linear)"/>
<circle cx="219.948" cy="163.135" r="161.823" stroke="#F4F4F4"/>
<path d="M219.542 325.458C269.969 325.458 310.849 252.783 310.849 163.135C310.849 73.4859 269.969 0.811279 219.542 0.811279" stroke="#F4F4F4"/>
<path d="M219.542 0.811535C169.115 0.811535 128.235 73.4861 128.235 163.135C128.235 252.783 169.115 325.458 219.542 325.458" stroke="#F4F4F4"/>
<line x1="219.448" y1="325.458" x2="219.448" y2="0.811523" stroke="#F4F4F4"/>
<line x1="57.625" y1="162.635" x2="382.271" y2="162.635" stroke="#F4F4F4"/>
<path d="M334.527 47.8853C334.527 72.5386 283.26 92.5241 220.018 92.5241C156.777 92.5241 105.51 72.5386 105.51 47.8853" stroke="#F4F4F4"/>
<path d="M105.51 278.384C105.51 253.731 156.778 233.745 220.019 233.745C283.26 233.745 334.527 253.731 334.527 278.384" stroke="#F4F4F4"/>
<rect x="115.25" y="170.14" width="30.8414" height="5.99772" transform="rotate(-7 115.25 170.14)" fill="#326BC0"/>
<rect x="117.965" y="192.251" width="30.8414" height="5.99772" transform="rotate(-7 117.965 192.251)" fill="#326BC0"/>
<rect x="116.608" y="181.195" width="30.8414" height="5.99772" transform="rotate(-7 116.608 181.195)" fill="#326BC0"/>
<rect x="119.322" y="203.307" width="30.8414" height="5.99772" transform="rotate(-7 119.322 203.307)" fill="#326BC0"/>
<rect x="122.037" y="225.417" width="30.8414" height="5.99772" transform="rotate(-7 122.037 225.417)" fill="#326BC0"/>
<rect x="120.681" y="214.362" width="30.8414" height="5.99772" transform="rotate(-7 120.681 214.362)" fill="#326BC0"/>
<rect x="123.396" y="236.473" width="30.8414" height="5.99772" transform="rotate(-7 123.396 236.473)" fill="#326BC0"/>
<rect x="132.294" y="259.802" width="22.1273" height="5.99772" transform="rotate(-38.8577 132.294 259.802)" fill="#326BC0"/>
<rect x="146.271" y="277.149" width="22.1273" height="5.99772" transform="rotate(-38.8577 146.271 277.149)" fill="#326BC0"/>
<rect x="139.282" y="268.476" width="22.1273" height="5.99772" transform="rotate(-38.8577 139.282 268.476)" fill="#326BC0"/>
<rect x="153.259" y="285.823" width="22.1273" height="5.99772" transform="rotate(-38.8577 153.259 285.823)" fill="#326BC0"/>
<rect x="167.235" y="303.17" width="22.1273" height="5.99772" transform="rotate(-38.8577 167.235 303.17)" fill="#326BC0"/>
<rect x="160.247" y="294.497" width="22.1273" height="5.99772" transform="rotate(-38.8577 160.247 294.497)" fill="#326BC0"/>
<rect x="174.224" y="311.844" width="22.1273" height="5.99772" transform="rotate(-38.8577 174.224 311.844)" fill="#326BC0"/>
<rect x="316.756" y="155.706" width="8.56074" height="5.99772" transform="rotate(170.707 316.756 155.706)" fill="#326BC0"/>
<rect x="313.158" y="133.72" width="8.56074" height="5.99772" transform="rotate(170.707 313.158 133.72)" fill="#326BC0"/>
<rect x="314.957" y="144.713" width="8.56074" height="5.99772" transform="rotate(170.707 314.957 144.713)" fill="#326BC0"/>
<rect x="311.359" y="122.728" width="8.56074" height="5.99772" transform="rotate(170.707 311.359 122.728)" fill="#326BC0"/>
<rect x="307.762" y="100.743" width="8.56074" height="5.99772" transform="rotate(170.707 307.762 100.743)" fill="#326BC0"/>
<rect x="309.561" y="111.736" width="8.56074" height="5.99772" transform="rotate(170.707 309.561 111.736)" fill="#326BC0"/>
<rect x="305.964" y="89.751" width="8.56074" height="5.99772" transform="rotate(170.707 305.964 89.751)" fill="#326BC0"/>
<rect x="309.694" y="64.5781" width="22.1273" height="5.99772" transform="rotate(138.849 309.694 64.5781)" fill="#326BC0"/>
<rect x="295.035" y="47.8037" width="22.1273" height="5.99772" transform="rotate(138.849 295.035 47.8037)" fill="#326BC0"/>
<rect x="302.364" y="56.1909" width="22.1273" height="5.99772" transform="rotate(138.849 302.364 56.1909)" fill="#326BC0"/>
<rect x="287.705" y="39.4165" width="22.1273" height="5.99772" transform="rotate(138.849 287.705 39.4165)" fill="#326BC0"/>
<rect x="273.045" y="22.6426" width="22.1273" height="5.99772" transform="rotate(138.849 273.045 22.6426)" fill="#326BC0"/>
<rect x="280.375" y="31.0298" width="22.1273" height="5.99772" transform="rotate(138.849 280.375 31.0298)" fill="#326BC0"/>
<rect x="265.716" y="14.2554" width="22.1273" height="5.99772" transform="rotate(138.849 265.716 14.2554)" fill="#326BC0"/>
<rect x="142.033" y="245.919" width="18.6669" height="5.99772" transform="rotate(-90 142.033 245.919)" fill="#326BC0"/>
<rect x="164.311" y="245.919" width="18.6669" height="5.99772" transform="rotate(-90 164.311 245.919)" fill="#326BC0"/>
<rect x="153.171" y="245.919" width="18.6669" height="5.99772" transform="rotate(-90 153.171 245.919)" fill="#326BC0"/>
<rect x="175.448" y="245.919" width="18.6669" height="5.99772" transform="rotate(-90 175.448 245.919)" fill="#326BC0"/>
<rect x="197.726" y="245.919" width="18.6669" height="5.99772" transform="rotate(-90 197.726 245.919)" fill="#326BC0"/>
<rect x="186.587" y="245.919" width="18.6669" height="5.99772" transform="rotate(-90 186.587 245.919)" fill="#326BC0"/>
<rect x="208.864" y="245.919" width="18.6669" height="5.99772" transform="rotate(-90 208.864 245.919)" fill="#326BC0"/>
<rect x="223.589" y="96.3364" width="7.30377" height="5.99772" transform="rotate(-99.5074 223.589 96.3364)" fill="#326BC0"/>
<rect x="245.561" y="92.6572" width="7.30377" height="5.99772" transform="rotate(-99.5074 245.561 92.6572)" fill="#326BC0"/>
<rect x="234.574" y="94.4971" width="7.30377" height="5.99772" transform="rotate(-99.5074 234.574 94.4971)" fill="#326BC0"/>
<rect x="256.546" y="90.8174" width="7.30377" height="5.99772" transform="rotate(-99.5074 256.546 90.8174)" fill="#326BC0"/>
<rect x="278.518" y="87.1377" width="7.30377" height="5.99772" transform="rotate(-99.5074 278.518 87.1377)" fill="#326BC0"/>
<rect x="267.531" y="88.9775" width="7.30377" height="5.99772" transform="rotate(-99.5074 267.531 88.9775)" fill="#326BC0"/>
<rect x="289.503" y="85.2979" width="7.30377" height="5.99772" transform="rotate(-99.5074 289.503 85.2979)" fill="#326BC0"/>
<rect x="334.386" y="94.959" width="15.4207" height="5.68131" rx="2.84066" fill="#F4F4F4"/>
<rect x="334.386" y="116.061" width="15.4207" height="5.68131" rx="2.84066" fill="#F4F4F4"/>
<rect x="334.386" y="105.51" width="15.4207" height="5.68131" rx="2.84066" fill="#F4F4F4"/>
<rect x="334.386" y="126.612" width="15.4207" height="5.68131" rx="2.84066" fill="#F4F4F4"/>
<rect x="334.386" y="147.714" width="15.4207" height="5.68131" rx="2.84066" fill="#F4F4F4"/>
<rect x="334.386" y="137.163" width="15.4207" height="5.68131" rx="2.84066" fill="#F4F4F4"/>
<rect x="112.003" y="131.481" width="215.078" height="124.989" rx="20" fill="#4A4A4A"/>
<rect x="117.055" y="139.338" width="202.809" height="109.276" rx="20" fill="#F4F4F4"/>
<path d="M14.5577 274.326H420.908L439.896 307.602H0L14.5577 274.326Z" fill="url(#paint4_linear)"/>
<path d="M104.155 272.066L129.564 272.066L121.448 303.138L92.2177 303.138L104.155 272.066Z" fill="#00398F"/>
<path d="M104.46 270.461L129.87 270.461L121.753 301.533L92.5234 301.533L104.46 270.461Z" fill="white"/>
<path d="M104.46 267.215L129.87 267.215L121.753 298.287L92.5234 298.287L104.46 267.215Z" fill="#00255D"/>
<path d="M104.698 267.832L96.8641 293.178L92.5238 302.86L90.9006 302.86L104.698 267.832Z" fill="#00255D"/>
<path d="M97.3933 299.957L95.2104 306.003L93.7409 305.573L95.8315 299.957L97.3933 299.957Z" fill="#C4C4C4"/>
<path d="M236.917 219.141C223.79 221.653 215.639 221.634 200.569 220.635L204.552 221.133C216.602 222.485 221.866 222.65 233.929 220.137L236.917 219.141Z" fill="black" fill-opacity="0.15"/>
<path d="M211.594 162.499C215.412 161.125 219.593 160.938 223.535 161.901C235.913 164.927 240.529 173.032 240.529 187.773L239.035 193.25C239.064 199.337 237.669 199.288 234.554 203.208L236.135 225.366H203.184L204.18 203.208C200.921 201.517 199.325 200.312 198.205 196.237L197.209 194.744C195.057 177.621 198.476 167.22 211.594 162.499Z" fill="#E5C59A"/>
<path d="M212.035 161.465C215.832 160.131 219.97 159.947 223.886 160.876C236.646 163.904 241.399 172.111 241.399 187.093L239.875 192.634C239.905 198.793 238.48 198.744 235.302 202.71L227.457 209.681H211.524L204.308 202.71C200.982 200.999 199.354 199.78 198.211 195.657L197.195 194.146C194.99 176.753 198.515 166.214 212.035 161.465Z" fill="#414141"/>
<path d="M168.702 384.95L176.669 388.436L160.735 476.07L151.772 475.074L168.702 384.95Z" fill="#3A3A3A"/>
<path d="M268.287 384.95L260.32 388.436L275.756 455.655H282.727L268.287 384.95Z" fill="#3A3A3A"/>
<path d="M240.901 393.415H228.453L238.411 484.535H247.374L240.901 393.415Z" fill="#3A3A3A"/>
<path d="M198.578 391.921H206.544L201.775 442.709H196.586L198.578 391.921Z" fill="#3A3A3A"/>
<path d="M161.731 421.796L190.113 425.282C190.723 432.808 190.406 436.294 189.117 441.713C178.671 442.538 161.731 436.236 160.237 431.755C158.743 427.274 158.458 424.469 161.731 421.796Z" fill="#3A3A3A"/>
<path d="M272.145 421.796C258.875 427.534 251.37 429.691 237.778 430.07C237.04 436.754 237.423 439.85 238.982 444.663C251.611 445.395 272.167 435.393 273.973 431.413C275.779 427.433 276.102 424.17 272.145 421.796Z" fill="#3A3A3A"/>
<path d="M237.416 219.315L255.643 227.11C265.069 231.141 271.785 239.707 273.449 249.823L278.938 283.181C280.132 290.434 278.072 297.845 273.308 303.443L264.587 313.69L219.242 320.22L173.686 313.69L165.149 303.658C160.28 297.937 158.241 290.329 159.598 282.94L165.423 251.219C167.169 241.71 173.39 233.626 182.134 229.502L200.569 220.809L202.063 213.34C215.231 208.548 222.369 208.914 234.926 211.847L237.416 219.315Z" fill="#E4CCE0"/>
<path d="M177.305 260.684L183.263 264.606L182.369 281.006L180.343 291.539L178.363 281.271L179.729 267.316L177.305 260.684Z" fill="black" fill-opacity="0.15"/>
<path d="M263.384 255.659L257.564 265.786L257.915 278.229L258.365 294.156L261.394 295.565L260.902 278.145L260.578 266.697L263.384 255.659Z" fill="black" fill-opacity="0.15"/>
<path d="M218.992 283.548C272.768 283.548 294.007 303.065 278.245 359.73L276.035 385.368C275.865 387.339 274.55 389.024 272.679 389.667L251.789 396.848C246.558 398.646 241.066 399.564 235.535 399.564H200.982C195.11 399.564 189.283 398.53 183.77 396.508L165.05 389.644C163.314 389.008 162.071 387.465 161.819 385.633L158.246 359.73C143.564 298.65 165.886 283.548 218.992 283.548Z" fill="#5AC5A5"/>
<path d="M275.138 388.358L253.409 396.286C247.918 398.29 242.117 399.315 236.271 399.315H200.356C194.789 399.315 189.261 398.386 184.001 396.565L168.72 391.275C167.593 390.885 167.981 389.181 169.167 389.303C209.267 393.396 233.948 393.331 275.138 388.358Z" fill="#42B08F"/>
<path d="M240.901 187.274H239.407C239.407 167.855 229.947 161.394 218.471 161.88C206.607 162.383 197.581 170.345 197.581 187.274H196.063C196.064 168.851 205.548 159.889 218.471 159.889C230.942 159.889 240.901 166.86 240.901 187.274Z" fill="#003E9A"/>
<path d="M193.598 188.511C193.598 188.072 193.884 187.684 194.304 187.555L198.777 186.179C199.42 185.981 200.071 186.462 200.071 187.135V198.658C200.071 199.387 199.314 199.871 198.652 199.566L194.179 197.501C193.824 197.338 193.598 196.983 193.598 196.593V188.511Z" fill="#326BC0"/>
<path d="M243.889 188.511C243.889 188.072 243.602 187.684 243.183 187.555L238.71 186.179C238.067 185.981 237.416 186.462 237.416 187.135V198.658C237.416 199.387 238.172 199.871 238.835 199.566L243.308 197.501C243.662 197.338 243.889 196.983 243.889 196.593V188.511Z" fill="#326BC0"/>
<path d="M277.573 313.689C270.846 306.142 266.559 301.383 250.74 293.126C244.164 289.693 236.796 288.124 229.378 288.124H207.211C199.297 288.124 191.427 289.894 184.562 293.831C174.846 299.403 169.387 303.786 163.98 309.314C163.191 310.121 164.173 311.359 165.171 310.832C208.08 288.162 232.692 289.114 277.573 313.689Z" fill="#42B08F"/>
<path d="M409.887 242.993V273.208H397.229L394.983 271.166V245.238L397.229 242.993H409.887Z" fill="#81B3FF"/>
<path d="M374.739 226.66C377.995 223.984 380.076 222.754 384.539 221.352H400.259C405.056 223.334 406.997 224.515 410.058 226.66C412.217 232.023 412.058 233.6 410.058 234.622V237.072C412.503 238.667 412.563 239.6 410.058 241.359V244.829H405.363H400.667C399.047 245.57 398.784 246.343 398.625 247.892V270.145C399.317 271.722 399.776 272.139 400.667 272.39H405.363V244.829H410.058V272.39V275.861C412.015 277.625 411.672 278.547 410.058 280.148V282.19C411.76 283.49 411.565 284.743 410.058 287.498L407.404 289.539C394.204 291.839 388.489 291.065 378.414 289.539C376.818 288.961 376.029 288.5 374.739 287.498C372.92 284.66 372.835 283.534 374.739 282.19V280.148C372.803 277.639 373.227 276.884 374.739 275.861V264.224C373.108 262.868 373.018 262.066 374.739 260.549V240.95C372.879 239.352 373.071 238.509 374.739 237.072V234.213C372.943 233.16 373.024 231.408 374.739 226.66Z" fill="url(#paint5_linear)"/>
<path d="M374.673 236.867C388.539 239.736 396.331 239.796 410.196 236.867C412.439 238.707 412.203 239.573 410.196 240.95C396.412 243.597 388.627 243.612 374.673 240.95C373.033 239.183 372.771 238.263 374.673 236.867Z" fill="#88B8FF"/>
<path d="M374.673 275.657C388.539 278.525 396.331 278.586 410.196 275.657C412.439 277.496 412.203 278.362 410.196 279.74C396.412 282.386 388.627 282.402 374.673 279.74C373.033 277.973 372.771 277.053 374.673 275.657Z" fill="#88B8FF"/>
<path d="M374.673 260.55C388.539 263.419 396.331 263.479 410.196 260.55C412.439 262.39 412.203 263.256 410.196 264.633C396.412 267.28 388.627 267.295 374.673 264.633C373.033 262.866 372.771 261.946 374.673 260.55Z" fill="#88B8FF"/>
<path d="M374.009 229.519C388.153 231.89 397.216 232.547 410.757 230.131C411.369 232.173 411.985 233.542 409.981 235.487C396.225 238.098 388.452 238.173 374.52 235.487C372.883 232.992 373.192 231.56 374.009 229.519Z" fill="#88B8FF"/>
<path d="M374.009 283.415C388.153 285.786 397.216 286.443 410.757 284.028C411.369 286.069 411.985 287.439 409.981 289.383C396.225 291.995 388.452 292.069 374.52 289.383C372.883 286.889 373.192 285.457 374.009 283.415Z" fill="#88B8FF"/>
<path d="M384.775 211.552C390.593 209.784 393.897 209.738 399.883 211.552V221.352C393.805 222.91 390.515 222.938 384.775 221.352V211.552Z" fill="url(#paint6_linear)"/>
<path d="M391.717 213.26C392.346 212.088 392.703 212.057 393.35 213.26V219.754C392.693 220.787 392.337 220.805 391.717 219.754V213.26Z" fill="#F4F4F4" fill-opacity="0.52"/>
<path d="M388.45 213.26C389.079 212.088 389.436 212.057 390.083 213.26V219.754C389.426 220.787 389.071 220.805 388.45 219.754V213.26Z" fill="#F4F4F4" fill-opacity="0.52"/>
<path d="M394.983 213.26C395.612 212.088 395.97 212.057 396.617 213.26V219.754C395.96 220.787 395.604 220.805 394.983 219.754V213.26Z" fill="#F4F4F4" fill-opacity="0.52"/>
<path d="M231.496 101.082L231.476 101.15V101.22L231.476 115.853C231.079 120.807 230.607 122.29 229.984 123.178C229.827 123.402 229.654 123.597 229.45 123.811C229.386 123.878 229.317 123.949 229.245 124.023C229.093 124.179 228.926 124.352 228.755 124.54C228.268 125.075 227.714 125.778 227.078 126.922H213.027C212.187 125.696 211.492 124.902 210.903 124.284C210.715 124.086 210.543 123.912 210.385 123.751C210.007 123.367 209.704 123.059 209.425 122.687C208.673 121.688 208.128 120.249 207.478 115.837L207.478 101.22V101.144L207.454 101.07C207.134 100.051 206.291 98.8314 204.459 96.8288C202.616 94.814 199.714 91.9495 195.191 87.6355C191.409 83.2956 187.912 74.4509 187.123 64.9086C186.334 55.362 188.267 45.2542 195.183 38.3378C208.794 24.7267 230.862 24.7267 244.473 38.3378C251.687 45.5519 253.507 56.1265 252.586 65.8356C252.126 70.6824 250.984 75.2885 249.509 79.1106C248.032 82.9334 246.239 85.9286 244.495 87.6065C239.881 91.3543 236.861 93.9545 234.888 95.9852C232.909 98.0221 231.946 99.5241 231.496 101.082Z" fill="#326BC0" stroke="white"/>
<rect x="205.72" y="102.231" width="27.7541" height="4.18517" rx="2.09259" fill="#326BC0" stroke="white"/>
<rect x="205.72" y="108.831" width="27.7541" height="3.71379" rx="1.8569" fill="#326BC0" stroke="white"/>
<rect x="205.72" y="114.959" width="27.7541" height="4.18517" rx="2.09259" fill="#326BC0" stroke="white"/>
<circle cx="219.832" cy="63.0788" r="17.3552" fill="#326BC0" stroke="white" stroke-width="3"/>
<rect x="234.785" y="46.1089" width="6.59931" height="9.42758" transform="rotate(43.3289 234.785 46.1089)" fill="#326BC0"/>
<rect x="223.972" y="40.6216" width="6.59931" height="9.42758" transform="rotate(14.6515 223.972 40.6216)" fill="#326BC0"/>
<rect x="240.711" y="56.9019" width="6.59931" height="9.42758" transform="rotate(81.4236 240.711 56.9019)" fill="#326BC0"/>
<defs>
<linearGradient id="paint0_linear" x1="220.443" y1="433.626" x2="220.443" y2="500" gradientUnits="userSpaceOnUse">
<stop stop-color="#326BC0"/>
<stop offset="1" stop-color="#A7C9FC"/>
</linearGradient>
<linearGradient id="paint1_linear" x1="67.0919" y1="38.2344" x2="67.0919" y2="76.469" gradientUnits="userSpaceOnUse">
<stop stop-color="#326BC0"/>
<stop offset="1" stop-color="#75ACFF"/>
</linearGradient>
<linearGradient id="paint2_linear" x1="67.0919" y1="88.5547" x2="67.0919" y2="126.789" gradientUnits="userSpaceOnUse">
<stop stop-color="#326BC0"/>
<stop offset="1" stop-color="#75ACFF"/>
</linearGradient>
<linearGradient id="paint3_linear" x1="219.948" y1="59.6535" x2="219.948" y2="375.372" gradientUnits="userSpaceOnUse">
<stop stop-color="#326BC0"/>
<stop offset="1" stop-color="#326BC0" stop-opacity="0.27"/>
</linearGradient>
<linearGradient id="paint4_linear" x1="219.948" y1="274.326" x2="219.948" y2="307.602" gradientUnits="userSpaceOnUse">
<stop stop-color="#4A4A4A"/>
<stop offset="1" stop-color="#757575"/>
</linearGradient>
<linearGradient id="paint5_linear" x1="380.647" y1="262.558" x2="426.504" y2="262.964" gradientUnits="userSpaceOnUse">
<stop stop-color="#B6D3FF"/>
<stop offset="1" stop-color="#E6F0FF"/>
</linearGradient>
<linearGradient id="paint6_linear" x1="392.329" y1="210.208" x2="392.329" y2="222.531" gradientUnits="userSpaceOnUse">
<stop stop-color="#C4C4C4"/>
<stop offset="1" stop-color="#ACACAC"/>
</linearGradient>
</defs>
</svg>
