<svg width="428" height="197" viewBox="0 0 428 197" fill="none" xmlns="http://www.w3.org/2000/svg">
<g filter="url(#filter0_d)">
<path d="M0 20C0 8.9543 8.95431 0 20 0H399.156C410.202 0 419.156 8.95431 419.156 20V133C419.156 144.046 410.202 153 399.156 153H101.078L19.5781 189L41.5781 153H20C8.95431 153 0 144.046 0 133V20Z" fill="white"/>
</g>
<path d="M77.835 46H75.3936L68.8872 37.3452L67.0195 39.0054V46H64.9443V28.1533H67.0195V37.0034L75.1128 28.1533H77.5664L70.3887 35.9048L77.835 46ZM87.022 46H84.9956V32.6211H87.022V46ZM84.8247 28.9956C84.8247 28.5317 84.9386 28.194 85.1665 27.9824C85.3944 27.7627 85.6792 27.6528 86.021 27.6528C86.3465 27.6528 86.6273 27.7627 86.8633 27.9824C87.0993 28.2021 87.2173 28.5399 87.2173 28.9956C87.2173 29.4513 87.0993 29.7931 86.8633 30.021C86.6273 30.2407 86.3465 30.3506 86.021 30.3506C85.6792 30.3506 85.3944 30.2407 85.1665 30.021C84.9386 29.7931 84.8247 29.4513 84.8247 28.9956ZM94.6953 52.0059C93.9222 52.0059 93.2956 51.9041 92.8154 51.7007V50.0527C93.377 50.2155 93.9303 50.2969 94.4756 50.2969C95.1104 50.2969 95.5742 50.1219 95.8672 49.772C96.1683 49.4302 96.3188 48.9053 96.3188 48.1973V32.6211H98.3452V48.0508C98.3452 50.6875 97.1286 52.0059 94.6953 52.0059ZM96.1479 28.9956C96.1479 28.5317 96.2619 28.194 96.4897 27.9824C96.7176 27.7627 97.0024 27.6528 97.3442 27.6528C97.6698 27.6528 97.9505 27.7627 98.1865 27.9824C98.4225 28.2021 98.5405 28.5399 98.5405 28.9956C98.5405 29.4513 98.4225 29.7931 98.1865 30.021C97.9505 30.2407 97.6698 30.3506 97.3442 30.3506C97.0024 30.3506 96.7176 30.2407 96.4897 30.021C96.2619 29.7931 96.1479 29.4513 96.1479 28.9956ZM109.668 46H107.642V32.6211H109.668V46ZM107.471 28.9956C107.471 28.5317 107.585 28.194 107.813 27.9824C108.041 27.7627 108.326 27.6528 108.667 27.6528C108.993 27.6528 109.274 27.7627 109.51 27.9824C109.746 28.2021 109.864 28.5399 109.864 28.9956C109.864 29.4513 109.746 29.7931 109.51 30.021C109.274 30.2407 108.993 30.3506 108.667 30.3506C108.326 30.3506 108.041 30.2407 107.813 30.021C107.585 29.7931 107.471 29.4513 107.471 28.9956ZM117.342 52.0059C116.569 52.0059 115.942 51.9041 115.462 51.7007V50.0527C116.023 50.2155 116.577 50.2969 117.122 50.2969C117.757 50.2969 118.221 50.1219 118.514 49.772C118.815 49.4302 118.965 48.9053 118.965 48.1973V32.6211H120.992V48.0508C120.992 50.6875 119.775 52.0059 117.342 52.0059ZM118.794 28.9956C118.794 28.5317 118.908 28.194 119.136 27.9824C119.364 27.7627 119.649 27.6528 119.991 27.6528C120.316 27.6528 120.597 27.7627 120.833 27.9824C121.069 28.2021 121.187 28.5399 121.187 28.9956C121.187 29.4513 121.069 29.7931 120.833 30.021C120.597 30.2407 120.316 30.3506 119.991 30.3506C119.649 30.3506 119.364 30.2407 119.136 30.021C118.908 29.7931 118.794 29.4513 118.794 28.9956ZM132.315 46H130.289V32.6211H132.315V46ZM130.118 28.9956C130.118 28.5317 130.232 28.194 130.459 27.9824C130.687 27.7627 130.972 27.6528 131.314 27.6528C131.639 27.6528 131.92 27.7627 132.156 27.9824C132.392 28.2021 132.51 28.5399 132.51 28.9956C132.51 29.4513 132.392 29.7931 132.156 30.021C131.92 30.2407 131.639 30.3506 131.314 30.3506C130.972 30.3506 130.687 30.2407 130.459 30.021C130.232 29.7931 130.118 29.4513 130.118 28.9956ZM176.88 33.3535C176.88 35.1602 176.262 36.5518 175.025 37.5283C173.796 38.4967 172.034 38.981 169.739 38.981H167.64V46H165.564V28.1533H170.191C174.651 28.1533 176.88 29.8867 176.88 33.3535ZM167.64 37.1987H169.507C171.347 37.1987 172.677 36.9017 173.499 36.3076C174.321 35.7135 174.732 34.7614 174.732 33.4512C174.732 32.2712 174.345 31.3923 173.572 30.8145C172.799 30.2367 171.595 29.9478 169.959 29.9478H167.64V37.1987ZM193.55 46L193.147 44.0957H193.05C192.382 44.9339 191.715 45.5036 191.048 45.8047C190.389 46.0977 189.563 46.2441 188.57 46.2441C187.243 46.2441 186.202 45.9023 185.445 45.2188C184.696 44.5352 184.322 43.5627 184.322 42.3013C184.322 39.5994 186.482 38.1834 190.804 38.0532L193.074 37.98V37.1499C193.074 36.1001 192.846 35.327 192.391 34.8306C191.943 34.326 191.223 34.0737 190.23 34.0737C189.115 34.0737 187.854 34.4155 186.446 35.0991L185.823 33.5488C186.482 33.1908 187.203 32.91 187.984 32.7065C188.773 32.5031 189.563 32.4014 190.352 32.4014C191.947 32.4014 193.127 32.7554 193.892 33.4634C194.665 34.1714 195.052 35.3066 195.052 36.8691V46H193.55ZM188.973 44.5718C190.234 44.5718 191.223 44.2259 191.939 43.5342C192.663 42.8424 193.025 41.874 193.025 40.6289V39.4204L190.999 39.5059C189.388 39.5628 188.224 39.8151 187.508 40.2627C186.8 40.7021 186.446 41.3898 186.446 42.3257C186.446 43.0581 186.666 43.6156 187.105 43.998C187.553 44.3805 188.175 44.5718 188.973 44.5718ZM213.345 44.2056H213.235C212.299 45.5646 210.9 46.2441 209.036 46.2441C207.286 46.2441 205.923 45.646 204.947 44.4497C203.978 43.2534 203.494 41.5526 203.494 39.3472C203.494 37.1418 203.982 35.4287 204.959 34.208C205.936 32.9873 207.295 32.377 209.036 32.377C210.851 32.377 212.243 33.0361 213.211 34.3545H213.37L213.284 33.3901L213.235 32.4502V27.0059H215.262V46H213.614L213.345 44.2056ZM209.292 44.5474C210.676 44.5474 211.677 44.173 212.295 43.4243C212.922 42.6675 213.235 41.4508 213.235 39.7744V39.3472C213.235 37.451 212.918 36.1001 212.283 35.2944C211.657 34.4806 210.652 34.0737 209.268 34.0737C208.08 34.0737 207.168 34.5376 206.534 35.4653C205.907 36.3849 205.594 37.687 205.594 39.3716C205.594 41.0806 205.907 42.3704 206.534 43.2412C207.16 44.112 208.08 44.5474 209.292 44.5474ZM241.624 46V37.2964C241.624 36.2303 241.396 35.4328 240.94 34.9038C240.485 34.3667 239.777 34.0981 238.816 34.0981C237.555 34.0981 236.623 34.4603 236.021 35.1846C235.419 35.9089 235.118 37.0238 235.118 38.5293V46H233.091V37.2964C233.091 36.2303 232.863 35.4328 232.408 34.9038C231.952 34.3667 231.24 34.0981 230.271 34.0981C229.002 34.0981 228.07 34.4806 227.476 35.2456C226.89 36.0024 226.597 37.2476 226.597 38.981V46H224.571V32.6211H226.219L226.548 34.4521H226.646C227.028 33.8011 227.566 33.2925 228.257 32.9263C228.957 32.5601 229.738 32.377 230.601 32.377C232.693 32.377 234.06 33.1338 234.703 34.6475H234.8C235.199 33.9476 235.777 33.3942 236.534 32.9873C237.291 32.5804 238.153 32.377 239.122 32.377C240.635 32.377 241.766 32.7676 242.515 33.5488C243.272 34.3219 243.65 35.563 243.65 37.272V46H241.624ZM261.065 46L260.662 44.0957H260.564C259.897 44.9339 259.23 45.5036 258.562 45.8047C257.903 46.0977 257.077 46.2441 256.084 46.2441C254.758 46.2441 253.716 45.9023 252.959 45.2188C252.211 44.5352 251.836 43.5627 251.836 42.3013C251.836 39.5994 253.997 38.1834 258.318 38.0532L260.589 37.98V37.1499C260.589 36.1001 260.361 35.327 259.905 34.8306C259.458 34.326 258.737 34.0737 257.745 34.0737C256.63 34.0737 255.368 34.4155 253.96 35.0991L253.338 33.5488C253.997 33.1908 254.717 32.91 255.499 32.7065C256.288 32.5031 257.077 32.4014 257.867 32.4014C259.462 32.4014 260.642 32.7554 261.407 33.4634C262.18 34.1714 262.566 35.3066 262.566 36.8691V46H261.065ZM256.487 44.5718C257.749 44.5718 258.737 44.2259 259.454 43.5342C260.178 42.8424 260.54 41.874 260.54 40.6289V39.4204L258.514 39.5059C256.902 39.5628 255.739 39.8151 255.022 40.2627C254.314 40.7021 253.96 41.3898 253.96 42.3257C253.96 43.0581 254.18 43.6156 254.62 43.998C255.067 44.3805 255.69 44.5718 256.487 44.5718ZM277.979 46.2441C277.108 46.2441 276.311 46.0854 275.586 45.7681C274.87 45.4425 274.268 44.9461 273.78 44.2788H273.633C273.731 45.0601 273.78 45.8006 273.78 46.5005V52.0059H271.753V32.6211H273.401L273.682 34.4521H273.78C274.301 33.7197 274.907 33.1908 275.599 32.8652C276.29 32.5397 277.084 32.377 277.979 32.377C279.753 32.377 281.12 32.9832 282.081 34.1958C283.049 35.4084 283.533 37.1092 283.533 39.2983C283.533 41.4956 283.041 43.2046 282.056 44.4253C281.08 45.6379 279.721 46.2441 277.979 46.2441ZM277.686 34.0981C276.319 34.0981 275.33 34.4766 274.72 35.2334C274.109 35.9902 273.796 37.1947 273.78 38.8467V39.2983C273.78 41.1782 274.093 42.5251 274.72 43.3389C275.346 44.1445 276.351 44.5474 277.735 44.5474C278.89 44.5474 279.794 44.0794 280.445 43.1436C281.104 42.2077 281.434 40.9178 281.434 39.2739C281.434 37.6056 281.104 36.328 280.445 35.4409C279.794 34.5457 278.874 34.0981 277.686 34.0981ZM298.311 46.2441C297.44 46.2441 296.643 46.0854 295.918 45.7681C295.202 45.4425 294.6 44.9461 294.112 44.2788H293.965C294.063 45.0601 294.112 45.8006 294.112 46.5005V52.0059H292.085V32.6211H293.733L294.014 34.4521H294.112C294.633 33.7197 295.239 33.1908 295.931 32.8652C296.622 32.5397 297.416 32.377 298.311 32.377C300.085 32.377 301.452 32.9832 302.413 34.1958C303.381 35.4084 303.865 37.1092 303.865 39.2983C303.865 41.4956 303.373 43.2046 302.388 44.4253C301.412 45.6379 300.053 46.2441 298.311 46.2441ZM298.018 34.0981C296.651 34.0981 295.662 34.4766 295.052 35.2334C294.441 35.9902 294.128 37.1947 294.112 38.8467V39.2983C294.112 41.1782 294.425 42.5251 295.052 43.3389C295.678 44.1445 296.683 44.5474 298.067 44.5474C299.222 44.5474 300.126 44.0794 300.777 43.1436C301.436 42.2077 301.766 40.9178 301.766 39.2739C301.766 37.6056 301.436 36.328 300.777 35.4409C300.126 34.5457 299.206 34.0981 298.018 34.0981ZM318.069 46.2441C316.092 46.2441 314.529 45.6419 313.382 44.4375C312.243 43.2331 311.673 41.5607 311.673 39.4204C311.673 37.2638 312.202 35.5508 313.26 34.2812C314.326 33.0117 315.754 32.377 317.544 32.377C319.221 32.377 320.547 32.9303 321.524 34.0371C322.5 35.1357 322.989 36.5884 322.989 38.395V39.6768H313.772C313.813 41.2474 314.208 42.4396 314.957 43.2534C315.713 44.0672 316.775 44.4741 318.143 44.4741C319.583 44.4741 321.007 44.173 322.415 43.5708V45.3774C321.699 45.6867 321.019 45.9064 320.376 46.0366C319.742 46.175 318.973 46.2441 318.069 46.2441ZM317.52 34.0737C316.446 34.0737 315.587 34.4237 314.944 35.1235C314.31 35.8234 313.935 36.7918 313.821 38.0288H320.816C320.816 36.7511 320.531 35.7746 319.961 35.0991C319.392 34.4155 318.578 34.0737 317.52 34.0737ZM337.559 32.377C338.153 32.377 338.686 32.4258 339.158 32.5234L338.877 34.4033C338.324 34.2812 337.836 34.2202 337.413 34.2202C336.33 34.2202 335.403 34.6597 334.629 35.5386C333.864 36.4175 333.482 37.512 333.482 38.8223V46H331.456V32.6211H333.128L333.36 35.0991H333.458C333.954 34.2284 334.552 33.557 335.252 33.085C335.952 32.613 336.721 32.377 337.559 32.377ZM73.4429 84H61.1748V82.3765L70.6475 68.021H61.4678V66.1533H73.1743V67.7769L63.7017 82.1201H73.4429V84ZM83.6309 84H81.6045V70.6211H83.6309V84ZM81.4336 66.9956C81.4336 66.5317 81.5475 66.194 81.7754 65.9824C82.0033 65.7627 82.2881 65.6528 82.6299 65.6528C82.9554 65.6528 83.2362 65.7627 83.4722 65.9824C83.7082 66.2021 83.8262 66.5399 83.8262 66.9956C83.8262 67.4513 83.7082 67.7931 83.4722 68.021C83.2362 68.2407 82.9554 68.3506 82.6299 68.3506C82.2881 68.3506 82.0033 68.2407 81.7754 68.021C81.5475 67.7931 81.4336 67.4513 81.4336 66.9956ZM94.9541 84H92.9277V65.0059H94.9541V84ZM106.277 84H104.251V65.0059H106.277V84ZM127.122 77.2983C127.122 79.4793 126.573 81.1842 125.474 82.4131C124.375 83.6338 122.858 84.2441 120.921 84.2441C119.725 84.2441 118.663 83.9634 117.735 83.4019C116.807 82.8403 116.091 82.0347 115.586 80.9849C115.082 79.9351 114.83 78.7062 114.83 77.2983C114.83 75.1174 115.375 73.4206 116.465 72.208C117.556 70.9873 119.069 70.377 121.006 70.377C122.878 70.377 124.363 70.9995 125.462 72.2446C126.569 73.4897 127.122 75.1743 127.122 77.2983ZM116.929 77.2983C116.929 79.0073 117.271 80.3094 117.955 81.2046C118.638 82.0998 119.643 82.5474 120.97 82.5474C122.296 82.5474 123.301 82.1038 123.985 81.2168C124.677 80.3216 125.022 79.0155 125.022 77.2983C125.022 75.5975 124.677 74.3076 123.985 73.4287C123.301 72.5417 122.288 72.0981 120.945 72.0981C119.619 72.0981 118.618 72.5335 117.942 73.4043C117.267 74.2751 116.929 75.5731 116.929 77.2983ZM146.612 84L144.158 76.1509C144.004 75.6707 143.715 74.5802 143.292 72.8794H143.194C142.868 74.3035 142.583 75.4022 142.339 76.1753L139.812 84H137.469L133.819 70.6211H135.943C136.806 73.9821 137.461 76.5415 137.908 78.2993C138.364 80.0571 138.624 81.2412 138.689 81.8516H138.787C138.877 81.3877 139.019 80.7896 139.214 80.0571C139.418 79.3166 139.593 78.7306 139.739 78.2993L142.193 70.6211H144.39L146.783 78.2993C147.238 79.6991 147.548 80.875 147.71 81.8271H147.808C147.841 81.5342 147.926 81.0825 148.064 80.4722C148.211 79.8618 149.061 76.5781 150.616 70.6211H152.715L149.017 84H146.612ZM191.47 69.0464C190.046 69.0464 188.943 69.5835 188.162 70.6577C187.381 71.7238 186.99 73.2131 186.99 75.1255C186.99 79.105 188.484 81.0947 191.47 81.0947C192.723 81.0947 194.241 80.7814 196.023 80.1548V83.3286C194.559 83.939 192.923 84.2441 191.116 84.2441C188.52 84.2441 186.535 83.4588 185.159 81.8882C183.784 80.3094 183.096 78.047 183.096 75.1011C183.096 73.2456 183.434 71.6221 184.109 70.2305C184.785 68.8307 185.753 67.7606 187.015 67.02C188.284 66.2713 189.769 65.897 191.47 65.897C193.204 65.897 194.945 66.3161 196.695 67.1543L195.474 70.2305C194.807 69.9131 194.135 69.6364 193.46 69.4004C192.785 69.1644 192.121 69.0464 191.47 69.0464ZM212.156 70.0962C212.661 70.0962 213.08 70.1328 213.414 70.2061L213.133 73.6973C212.832 73.6159 212.465 73.5752 212.034 73.5752C210.846 73.5752 209.918 73.8804 209.251 74.4907C208.592 75.1011 208.262 75.9556 208.262 77.0542V84H204.539V70.3525H207.359L207.908 72.6475H208.091C208.514 71.8825 209.084 71.2681 209.8 70.8042C210.525 70.3322 211.31 70.0962 212.156 70.0962ZM229.559 84L228.838 82.1445H228.741C228.114 82.9339 227.467 83.4832 226.8 83.7925C226.141 84.0936 225.278 84.2441 224.212 84.2441C222.902 84.2441 221.868 83.8698 221.111 83.1211C220.363 82.3724 219.988 81.3063 219.988 79.9229C219.988 78.4743 220.493 77.4082 221.502 76.7246C222.519 76.0329 224.049 75.6504 226.092 75.5771L228.46 75.5039V74.9058C228.46 73.5223 227.752 72.8306 226.336 72.8306C225.245 72.8306 223.964 73.1602 222.491 73.8193L221.258 71.3047C222.828 70.4827 224.57 70.0718 226.482 70.0718C228.313 70.0718 229.717 70.4705 230.694 71.2681C231.67 72.0656 232.159 73.2782 232.159 74.9058V84H229.559ZM228.46 77.6768L227.02 77.7256C225.937 77.7581 225.132 77.9535 224.603 78.3115C224.074 78.6696 223.809 79.2148 223.809 79.9473C223.809 80.9971 224.411 81.522 225.616 81.522C226.478 81.522 227.166 81.2738 227.679 80.7773C228.2 80.2809 228.46 79.6217 228.46 78.7998V77.6768ZM240.845 66.8247C240.845 65.6121 241.521 65.0059 242.872 65.0059C244.222 65.0059 244.898 65.6121 244.898 66.8247C244.898 67.4025 244.727 67.8542 244.385 68.1797C244.052 68.4971 243.547 68.6558 242.872 68.6558C241.521 68.6558 240.845 68.0454 240.845 66.8247ZM244.727 84H241.004V70.3525H244.727V84ZM265.523 70.3525V72.2446L263.387 72.7939C263.777 73.4043 263.973 74.0879 263.973 74.8447C263.973 76.3096 263.46 77.453 262.435 78.2749C261.417 79.0887 260.001 79.4956 258.187 79.4956L257.515 79.459L256.966 79.3979C256.583 79.6909 256.392 80.0164 256.392 80.3745C256.392 80.9116 257.076 81.1802 258.443 81.1802H260.762C262.26 81.1802 263.399 81.5016 264.18 82.1445C264.97 82.7874 265.364 83.7314 265.364 84.9766C265.364 86.5716 264.697 87.8086 263.362 88.6875C262.036 89.5664 260.127 90.0059 257.637 90.0059C255.733 90.0059 254.276 89.6722 253.267 89.0049C252.266 88.3457 251.766 87.418 251.766 86.2217C251.766 85.3997 252.022 84.7121 252.535 84.1587C253.047 83.6053 253.8 83.2106 254.793 82.9746C254.41 82.8118 254.077 82.5474 253.792 82.1812C253.507 81.8068 253.365 81.4121 253.365 80.9971C253.365 80.4762 253.515 80.0449 253.816 79.7031C254.118 79.3532 254.553 79.0114 255.123 78.6777C254.406 78.3685 253.837 77.8721 253.414 77.1885C252.999 76.5049 252.791 75.6992 252.791 74.7715C252.791 73.2822 253.275 72.1307 254.244 71.3169C255.212 70.5031 256.596 70.0962 258.394 70.0962C258.777 70.0962 259.228 70.1328 259.749 70.2061C260.278 70.2712 260.616 70.32 260.762 70.3525H265.523ZM254.988 85.9287C254.988 86.4414 255.232 86.8442 255.721 87.1372C256.217 87.4302 256.909 87.5767 257.796 87.5767C259.131 87.5767 260.176 87.3936 260.933 87.0273C261.69 86.6611 262.068 86.1606 262.068 85.5259C262.068 85.0132 261.845 84.6592 261.397 84.4639C260.949 84.2686 260.258 84.1709 259.322 84.1709H257.393C256.709 84.1709 256.136 84.3296 255.672 84.647C255.216 84.9725 254.988 85.3997 254.988 85.9287ZM256.343 74.8203C256.343 75.5609 256.51 76.1468 256.844 76.5781C257.186 77.0094 257.702 77.2251 258.394 77.2251C259.094 77.2251 259.607 77.0094 259.932 76.5781C260.258 76.1468 260.42 75.5609 260.42 74.8203C260.42 73.1764 259.745 72.3545 258.394 72.3545C257.027 72.3545 256.343 73.1764 256.343 74.8203ZM282.303 79.9473C282.303 81.347 281.814 82.4131 280.838 83.1455C279.869 83.8779 278.417 84.2441 276.48 84.2441C275.487 84.2441 274.641 84.175 273.941 84.0366C273.241 83.9064 272.586 83.7111 271.976 83.4507V80.3745C272.667 80.7 273.444 80.9727 274.307 81.1924C275.178 81.4121 275.943 81.522 276.602 81.522C277.953 81.522 278.628 81.1313 278.628 80.3501C278.628 80.0571 278.539 79.8211 278.36 79.6421C278.181 79.4549 277.872 79.2474 277.432 79.0195C276.993 78.7835 276.407 78.5109 275.674 78.2017C274.625 77.7622 273.851 77.3553 273.355 76.981C272.867 76.6066 272.509 76.1794 272.281 75.6992C272.061 75.2109 271.951 74.6128 271.951 73.9048C271.951 72.6922 272.419 71.7563 273.355 71.0972C274.299 70.4299 275.634 70.0962 277.359 70.0962C279.003 70.0962 280.602 70.4543 282.156 71.1704L281.033 73.856C280.35 73.563 279.711 73.3229 279.117 73.1357C278.523 72.9486 277.916 72.855 277.298 72.855C276.199 72.855 275.65 73.152 275.65 73.7461C275.65 74.0798 275.825 74.3687 276.175 74.6128C276.533 74.8569 277.31 75.2191 278.506 75.6992C279.572 76.1305 280.354 76.5334 280.85 76.9077C281.347 77.2821 281.713 77.7134 281.949 78.2017C282.185 78.6899 282.303 79.2718 282.303 79.9473ZM293.931 84H290.208V65.0059H293.931V84ZM302.691 66.8247C302.691 65.6121 303.366 65.0059 304.717 65.0059C306.068 65.0059 306.744 65.6121 306.744 66.8247C306.744 67.4025 306.573 67.8542 306.231 68.1797C305.897 68.4971 305.393 68.6558 304.717 68.6558C303.366 68.6558 302.691 68.0454 302.691 66.8247ZM306.573 84H302.85V70.3525H306.573V84ZM325.013 79.9473C325.013 81.347 324.524 82.4131 323.548 83.1455C322.579 83.8779 321.127 84.2441 319.19 84.2441C318.197 84.2441 317.351 84.175 316.651 84.0366C315.951 83.9064 315.296 83.7111 314.686 83.4507V80.3745C315.377 80.7 316.154 80.9727 317.017 81.1924C317.888 81.4121 318.653 81.522 319.312 81.522C320.663 81.522 321.338 81.1313 321.338 80.3501C321.338 80.0571 321.249 79.8211 321.07 79.6421C320.891 79.4549 320.582 79.2474 320.142 79.0195C319.703 78.7835 319.117 78.5109 318.384 78.2017C317.334 77.7622 316.561 77.3553 316.065 76.981C315.577 76.6066 315.219 76.1794 314.991 75.6992C314.771 75.2109 314.661 74.6128 314.661 73.9048C314.661 72.6922 315.129 71.7563 316.065 71.0972C317.009 70.4299 318.344 70.0962 320.069 70.0962C321.713 70.0962 323.312 70.4543 324.866 71.1704L323.743 73.856C323.06 73.563 322.421 73.3229 321.827 73.1357C321.233 72.9486 320.626 72.855 320.008 72.855C318.909 72.855 318.36 73.152 318.36 73.7461C318.36 74.0798 318.535 74.3687 318.885 74.6128C319.243 74.8569 320.02 75.2191 321.216 75.6992C322.282 76.1305 323.064 76.5334 323.56 76.9077C324.056 77.2821 324.423 77.7134 324.659 78.2017C324.895 78.6899 325.013 79.2718 325.013 79.9473ZM338.667 81.2778C339.319 81.2778 340.1 81.1354 341.011 80.8506V83.6216C340.083 84.0366 338.944 84.2441 337.593 84.2441C336.104 84.2441 335.018 83.8698 334.334 83.1211C333.659 82.3643 333.321 81.2331 333.321 79.7275V73.1479H331.539V71.5732L333.589 70.3281L334.664 67.4473H337.044V70.3525H340.865V73.1479H337.044V79.7275C337.044 80.2565 337.19 80.6471 337.483 80.8994C337.785 81.1517 338.179 81.2778 338.667 81.2778ZM87.3003 122L85.0786 116.324H77.9253L75.728 122H73.6284L80.6841 104.08H82.4297L89.4487 122H87.3003ZM84.4316 114.456L82.3564 108.926C82.0879 108.226 81.8112 107.368 81.5264 106.351C81.3473 107.132 81.091 107.99 80.7573 108.926L78.6577 114.456H84.4316ZM98.6235 122H96.5972V108.621H98.6235V122ZM96.4263 104.996C96.4263 104.532 96.5402 104.194 96.7681 103.982C96.9959 103.763 97.2808 103.653 97.6226 103.653C97.9481 103.653 98.2288 103.763 98.4648 103.982C98.7008 104.202 98.8188 104.54 98.8188 104.996C98.8188 105.451 98.7008 105.793 98.4648 106.021C98.2288 106.241 97.9481 106.351 97.6226 106.351C97.2808 106.351 96.9959 106.241 96.7681 106.021C96.5402 105.793 96.4263 105.451 96.4263 104.996ZM114.024 108.377C114.618 108.377 115.151 108.426 115.623 108.523L115.342 110.403C114.789 110.281 114.301 110.22 113.877 110.22C112.795 110.22 111.867 110.66 111.094 111.539C110.329 112.417 109.947 113.512 109.947 114.822V122H107.92V108.621H109.593L109.825 111.099H109.922C110.419 110.228 111.017 109.557 111.717 109.085C112.417 108.613 113.186 108.377 114.024 108.377ZM123.431 104.153H128.472C130.84 104.153 132.553 104.507 133.611 105.215C134.669 105.923 135.198 107.042 135.198 108.572C135.198 109.63 134.901 110.505 134.307 111.197C133.721 111.88 132.863 112.324 131.731 112.527V112.649C134.441 113.113 135.796 114.537 135.796 116.922C135.796 118.517 135.255 119.762 134.173 120.657C133.099 121.552 131.593 122 129.656 122H123.431V104.153ZM125.506 111.795H128.924C130.389 111.795 131.443 111.567 132.085 111.111C132.728 110.647 133.05 109.87 133.05 108.78C133.05 107.779 132.692 107.059 131.976 106.619C131.259 106.172 130.12 105.948 128.558 105.948H125.506V111.795ZM125.506 113.553V120.23H129.229C130.669 120.23 131.752 119.953 132.476 119.4C133.208 118.838 133.575 117.964 133.575 116.775C133.575 115.669 133.2 114.855 132.452 114.334C131.711 113.813 130.58 113.553 129.058 113.553H125.506ZM158.582 122H156.214L146.46 107.022H146.363C146.493 108.78 146.558 110.391 146.558 111.856V122H144.642V104.153H146.985L156.714 119.07H156.812C156.796 118.851 156.759 118.147 156.702 116.958C156.645 115.762 156.625 114.908 156.641 114.395V104.153H158.582V122ZM168.489 104.153H173.531C175.899 104.153 177.612 104.507 178.67 105.215C179.728 105.923 180.257 107.042 180.257 108.572C180.257 109.63 179.96 110.505 179.366 111.197C178.78 111.88 177.921 112.324 176.79 112.527V112.649C179.5 113.113 180.855 114.537 180.855 116.922C180.855 118.517 180.314 119.762 179.231 120.657C178.157 121.552 176.652 122 174.715 122H168.489V104.153ZM170.564 111.795H173.982C175.447 111.795 176.501 111.567 177.144 111.111C177.787 110.647 178.108 109.87 178.108 108.78C178.108 107.779 177.75 107.059 177.034 106.619C176.318 106.172 175.179 105.948 173.616 105.948H170.564V111.795ZM170.564 113.553V120.23H174.288C175.728 120.23 176.81 119.953 177.535 119.4C178.267 118.838 178.633 117.964 178.633 116.775C178.633 115.669 178.259 114.855 177.51 114.334C176.77 113.813 175.639 113.553 174.117 113.553H170.564ZM224.163 122H211.895V120.376L221.368 106.021H212.188V104.153H223.895V105.777L214.422 120.12H224.163V122ZM234.229 108.621V117.3C234.229 118.391 234.477 119.205 234.974 119.742C235.47 120.279 236.247 120.547 237.305 120.547C238.705 120.547 239.726 120.165 240.369 119.4C241.02 118.635 241.346 117.386 241.346 115.652V108.621H243.372V122H241.7L241.407 120.206H241.297C240.882 120.865 240.304 121.369 239.563 121.719C238.831 122.069 237.993 122.244 237.049 122.244C235.421 122.244 234.201 121.858 233.387 121.084C232.581 120.311 232.178 119.074 232.178 117.374V108.621H234.229ZM269.734 122V113.296C269.734 112.23 269.507 111.433 269.051 110.904C268.595 110.367 267.887 110.098 266.927 110.098C265.665 110.098 264.734 110.46 264.131 111.185C263.529 111.909 263.228 113.024 263.228 114.529V122H261.202V113.296C261.202 112.23 260.974 111.433 260.518 110.904C260.062 110.367 259.35 110.098 258.382 110.098C257.112 110.098 256.181 110.481 255.586 111.246C255 112.002 254.708 113.248 254.708 114.981V122H252.681V108.621H254.329L254.659 110.452H254.756C255.139 109.801 255.676 109.292 256.368 108.926C257.068 108.56 257.849 108.377 258.711 108.377C260.803 108.377 262.17 109.134 262.813 110.647H262.911C263.309 109.948 263.887 109.394 264.644 108.987C265.401 108.58 266.264 108.377 267.232 108.377C268.746 108.377 269.877 108.768 270.625 109.549C271.382 110.322 271.761 111.563 271.761 113.272V122H269.734ZM287.173 122.244C286.303 122.244 285.505 122.085 284.781 121.768C284.065 121.443 283.462 120.946 282.974 120.279H282.828C282.925 121.06 282.974 121.801 282.974 122.5V128.006H280.948V108.621H282.596L282.876 110.452H282.974C283.495 109.72 284.101 109.191 284.793 108.865C285.485 108.54 286.278 108.377 287.173 108.377C288.947 108.377 290.315 108.983 291.275 110.196C292.243 111.408 292.728 113.109 292.728 115.298C292.728 117.496 292.235 119.205 291.25 120.425C290.274 121.638 288.915 122.244 287.173 122.244ZM286.88 110.098C285.513 110.098 284.524 110.477 283.914 111.233C283.304 111.99 282.99 113.195 282.974 114.847V115.298C282.974 117.178 283.287 118.525 283.914 119.339C284.541 120.145 285.546 120.547 286.929 120.547C288.085 120.547 288.988 120.079 289.639 119.144C290.298 118.208 290.628 116.918 290.628 115.274C290.628 113.606 290.298 112.328 289.639 111.441C288.988 110.546 288.069 110.098 286.88 110.098ZM306.932 122.244C304.954 122.244 303.392 121.642 302.244 120.438C301.105 119.233 300.535 117.561 300.535 115.42C300.535 113.264 301.064 111.551 302.122 110.281C303.188 109.012 304.616 108.377 306.407 108.377C308.083 108.377 309.41 108.93 310.386 110.037C311.363 111.136 311.851 112.588 311.851 114.395V115.677H302.635C302.675 117.247 303.07 118.44 303.819 119.253C304.576 120.067 305.638 120.474 307.005 120.474C308.445 120.474 309.869 120.173 311.277 119.571V121.377C310.561 121.687 309.882 121.906 309.239 122.037C308.604 122.175 307.835 122.244 306.932 122.244ZM306.382 110.074C305.308 110.074 304.45 110.424 303.807 111.124C303.172 111.823 302.798 112.792 302.684 114.029H309.678C309.678 112.751 309.393 111.775 308.824 111.099C308.254 110.416 307.44 110.074 306.382 110.074ZM326.421 108.377C327.015 108.377 327.549 108.426 328.021 108.523L327.74 110.403C327.186 110.281 326.698 110.22 326.275 110.22C325.193 110.22 324.265 110.66 323.492 111.539C322.727 112.417 322.344 113.512 322.344 114.822V122H320.318V108.621H321.99L322.222 111.099H322.32C322.816 110.228 323.414 109.557 324.114 109.085C324.814 108.613 325.583 108.377 326.421 108.377Z" fill="#636363"/>
<path d="M144.542 40.0796H141.563L140.94 28.1533H145.164L144.542 40.0796ZM140.892 44.2544C140.892 43.5708 141.075 43.054 141.441 42.7041C141.807 42.3542 142.34 42.1792 143.04 42.1792C143.715 42.1792 144.236 42.3582 144.603 42.7163C144.977 43.0744 145.164 43.5871 145.164 44.2544C145.164 44.8973 144.977 45.4059 144.603 45.7803C144.228 46.1465 143.707 46.3296 143.04 46.3296C142.356 46.3296 141.827 46.1506 141.453 45.7925C141.079 45.4263 140.892 44.9136 140.892 44.2544ZM349.59 40.0796H346.612L345.989 28.1533H350.213L349.59 40.0796ZM345.94 44.2544C345.94 43.5708 346.124 43.054 346.49 42.7041C346.856 42.3542 347.389 42.1792 348.089 42.1792C348.764 42.1792 349.285 42.3582 349.651 42.7163C350.026 43.0744 350.213 43.5871 350.213 44.2544C350.213 44.8973 350.026 45.4059 349.651 45.7803C349.277 46.1465 348.756 46.3296 348.089 46.3296C347.405 46.3296 346.876 46.1506 346.502 45.7925C346.128 45.4263 345.94 44.9136 345.94 44.2544ZM163.074 78.0796H160.096L159.473 66.1533H163.697L163.074 78.0796ZM159.424 82.2544C159.424 81.5708 159.607 81.054 159.974 80.7041C160.34 80.3542 160.873 80.1792 161.573 80.1792C162.248 80.1792 162.769 80.3582 163.135 80.7163C163.51 81.0744 163.697 81.5871 163.697 82.2544C163.697 82.8973 163.51 83.4059 163.135 83.7803C162.761 84.1465 162.24 84.3296 161.573 84.3296C160.889 84.3296 160.36 84.1506 159.986 83.7925C159.611 83.4263 159.424 82.9136 159.424 82.2544ZM351.907 78.0796H348.929L348.306 66.1533H352.53L351.907 78.0796ZM348.257 82.2544C348.257 81.5708 348.44 81.054 348.807 80.7041C349.173 80.3542 349.706 80.1792 350.406 80.1792C351.081 80.1792 351.602 80.3582 351.968 80.7163C352.343 81.0744 352.53 81.5871 352.53 82.2544C352.53 82.8973 352.343 83.4059 351.968 83.7803C351.594 84.1465 351.073 84.3296 350.406 84.3296C349.722 84.3296 349.193 84.1506 348.819 83.7925C348.444 83.4263 348.257 82.9136 348.257 82.2544ZM192.325 116.08H189.346L188.724 104.153H192.947L192.325 116.08ZM188.675 120.254C188.675 119.571 188.858 119.054 189.224 118.704C189.59 118.354 190.123 118.179 190.823 118.179C191.499 118.179 192.02 118.358 192.386 118.716C192.76 119.074 192.947 119.587 192.947 120.254C192.947 120.897 192.76 121.406 192.386 121.78C192.011 122.146 191.491 122.33 190.823 122.33C190.14 122.33 189.611 122.151 189.236 121.792C188.862 121.426 188.675 120.914 188.675 120.254ZM338.453 116.08H335.474L334.852 104.153H339.075L338.453 116.08ZM334.803 120.254C334.803 119.571 334.986 119.054 335.352 118.704C335.718 118.354 336.251 118.179 336.951 118.179C337.627 118.179 338.147 118.358 338.514 118.716C338.888 119.074 339.075 119.587 339.075 120.254C339.075 120.897 338.888 121.406 338.514 121.78C338.139 122.146 337.618 122.33 336.951 122.33C336.268 122.33 335.739 122.151 335.364 121.792C334.99 121.426 334.803 120.914 334.803 120.254Z" fill="#FF4E16"/>
<defs>
<filter id="filter0_d" x="0" y="0" width="427.156" height="197" filterUnits="userSpaceOnUse" color-interpolation-filters="sRGB">
<feFlood flood-opacity="0" result="BackgroundImageFix"/>
<feColorMatrix in="SourceAlpha" type="matrix" values="0 0 0 0 0 0 0 0 0 0 0 0 0 0 0 0 0 0 127 0"/>
<feOffset dx="4" dy="4"/>
<feGaussianBlur stdDeviation="2"/>
<feColorMatrix type="matrix" values="0 0 0 0 0 0 0 0 0 0 0 0 0 0 0 0 0 0 0.25 0"/>
<feBlend mode="normal" in2="BackgroundImageFix" result="effect1_dropShadow"/>
<feBlend mode="normal" in="SourceGraphic" in2="effect1_dropShadow" result="shape"/>
</filter>
</defs>
</svg>
