<svg width="428" height="193" viewBox="0 0 428 193" fill="none" xmlns="http://www.w3.org/2000/svg">
<g filter="url(#filter0_d)">
<path d="M8.57812 20C8.57812 8.9543 17.5324 0 28.5781 0H407.734C418.78 0 427.734 8.95431 427.734 20V133C427.734 144.046 418.78 153 407.734 153H388.078L399.078 185L334.578 153H28.5781C17.5324 153 8.57812 144.046 8.57812 133V20Z" fill="white"/>
</g>
<path d="M44.0132 87V62.0146H46.9185V87H44.0132ZM75.6191 68.2695V80.4204C75.6191 81.9471 75.9666 83.0864 76.6616 83.8384C77.3566 84.5903 78.4447 84.9663 79.9258 84.9663C81.8854 84.9663 83.3153 84.4308 84.2153 83.3599C85.1268 82.2889 85.5825 80.54 85.5825 78.1133V68.2695H88.4194V87H86.0781L85.668 84.4878H85.5142C84.9331 85.4106 84.1242 86.117 83.0874 86.6069C82.062 87.0968 80.8885 87.3418 79.5669 87.3418C77.2882 87.3418 75.5793 86.8006 74.4399 85.7183C73.312 84.6359 72.748 82.9041 72.748 80.5229V68.2695H75.6191ZM111.785 81.8901C111.785 83.6333 111.135 84.9777 109.836 85.9233C108.538 86.869 106.715 87.3418 104.368 87.3418C101.884 87.3418 99.9471 86.9487 98.5571 86.1626V83.5308C99.4572 83.9865 100.42 84.3454 101.445 84.6074C102.482 84.8695 103.479 85.0005 104.436 85.0005C105.917 85.0005 107.056 84.7669 107.854 84.2998C108.652 83.8213 109.05 83.0978 109.05 82.1294C109.05 81.4002 108.731 80.7793 108.093 80.2666C107.467 79.7425 106.236 79.1273 104.402 78.4209C102.659 77.7715 101.417 77.2075 100.676 76.729C99.9471 76.2391 99.4002 75.6865 99.0356 75.0713C98.6825 74.4561 98.5059 73.7212 98.5059 72.8667C98.5059 71.34 99.1268 70.138 100.369 69.2607C101.611 68.3721 103.314 67.9277 105.479 67.9277C107.495 67.9277 109.466 68.3379 111.392 69.1582L110.383 71.4653C108.503 70.6906 106.8 70.3032 105.273 70.3032C103.929 70.3032 102.915 70.514 102.231 70.9355C101.548 71.3571 101.206 71.9382 101.206 72.6787C101.206 73.18 101.331 73.6073 101.582 73.9604C101.844 74.3136 102.26 74.6497 102.83 74.9688C103.399 75.2878 104.493 75.7492 106.111 76.353C108.333 77.1619 109.831 77.9766 110.605 78.7969C111.392 79.6172 111.785 80.6483 111.785 81.8901ZM129.579 87.3418C126.81 87.3418 124.623 86.4987 123.016 84.8125C121.421 83.1263 120.624 80.785 120.624 77.7886C120.624 74.7694 121.364 72.3711 122.845 70.5938C124.338 68.8164 126.337 67.9277 128.844 67.9277C131.191 67.9277 133.048 68.7025 134.415 70.252C135.782 71.79 136.466 73.8237 136.466 76.353V78.1475H123.563C123.62 80.3464 124.173 82.0155 125.221 83.1548C126.28 84.2941 127.767 84.8638 129.681 84.8638C131.698 84.8638 133.692 84.4422 135.663 83.5991V86.1284C134.66 86.5614 133.709 86.869 132.809 87.0513C131.92 87.245 130.843 87.3418 129.579 87.3418ZM128.81 70.3032C127.306 70.3032 126.104 70.7931 125.204 71.7729C124.315 72.7528 123.791 74.1086 123.631 75.8403H133.424C133.424 74.0516 133.025 72.6844 132.228 71.7388C131.43 70.7817 130.291 70.3032 128.81 70.3032ZM146.159 85.1885C146.159 84.4251 146.33 83.8498 146.672 83.4624C147.025 83.0636 147.526 82.8643 148.176 82.8643C148.837 82.8643 149.349 83.0636 149.714 83.4624C150.09 83.8498 150.278 84.4251 150.278 85.1885C150.278 85.929 150.09 86.4987 149.714 86.8975C149.338 87.2962 148.825 87.4956 148.176 87.4956C147.595 87.4956 147.111 87.319 146.723 86.9658C146.347 86.6012 146.159 86.0088 146.159 85.1885ZM146.159 70.0981C146.159 68.5601 146.831 67.791 148.176 67.791C149.577 67.791 150.278 68.5601 150.278 70.0981C150.278 70.8387 150.09 71.4084 149.714 71.8071C149.338 72.2059 148.825 72.4053 148.176 72.4053C147.595 72.4053 147.111 72.2287 146.723 71.8755C146.347 71.5109 146.159 70.9185 146.159 70.0981Z" fill="#636363"/>
<path d="M197.578 27H227.497V95.0202L197.578 118.253V27Z" fill="url(#paint0_linear)"/>
<path d="M227.497 95.0202V118.253H242.561H257.625V95.0202L242.561 82.6295L227.497 95.0202Z" fill="url(#paint1_linear)"/>
<path d="M365.641 79.9553V61.0792H348.406V47.3775H365.641V29.3643H380.544V47.3775V61.0792V79.9553H365.641Z" fill="url(#paint2_linear)"/>
<path d="M380.544 47.3775V61.0792H397.578V47.3775H380.544Z" fill="url(#paint3_linear)"/>
<path d="M287.885 35.0376L287.885 118.253H277.011L277.011 35.0376H287.885Z" fill="black"/>
<path d="M307.271 67.6621L307.271 118.253H296.396L296.396 67.6621H307.271Z" fill="black"/>
<path d="M321.077 67.6268L335.861 99.1137L334.235 117.914L312.15 72.7876L309.684 67.6268L321.077 67.6268Z" fill="black"/>
<path d="M356.332 72.8942L334.248 118.021L333.821 113.096L332.637 99.4087L347.168 67.7487L358.612 67.7487L356.332 72.8942Z" fill="black"/>
<circle cx="301.833" cy="49.4588" r="5.43735" fill="black"/>
<defs>
<filter id="filter0_d" x="0.578125" y="0" width="427.156" height="193" filterUnits="userSpaceOnUse" color-interpolation-filters="sRGB">
<feFlood flood-opacity="0" result="BackgroundImageFix"/>
<feColorMatrix in="SourceAlpha" type="matrix" values="0 0 0 0 0 0 0 0 0 0 0 0 0 0 0 0 0 0 127 0"/>
<feOffset dx="-4" dy="4"/>
<feGaussianBlur stdDeviation="2"/>
<feColorMatrix type="matrix" values="0 0 0 0 0 0 0 0 0 0 0 0 0 0 0 0 0 0 0.25 0"/>
<feBlend mode="normal" in2="BackgroundImageFix" result="effect1_dropShadow"/>
<feBlend mode="normal" in="SourceGraphic" in2="effect1_dropShadow" result="shape"/>
</filter>
<linearGradient id="paint0_linear" x1="197.841" y1="27.1291" x2="256.202" y2="119.576" gradientUnits="userSpaceOnUse">
<stop stop-color="#FF4E16"/>
<stop offset="0.9999" stop-color="#FF1616" stop-opacity="0.61"/>
<stop offset="1" stop-color="#FF4E16" stop-opacity="0"/>
</linearGradient>
<linearGradient id="paint1_linear" x1="197.841" y1="27.1291" x2="256.202" y2="119.576" gradientUnits="userSpaceOnUse">
<stop stop-color="#FF4E16"/>
<stop offset="0.9999" stop-color="#FF1616" stop-opacity="0.61"/>
<stop offset="1" stop-color="#FF4E16" stop-opacity="0"/>
</linearGradient>
<linearGradient id="paint2_linear" x1="351.939" y1="21.4594" x2="397.88" y2="69.6822" gradientUnits="userSpaceOnUse">
<stop stop-color="#FF4E16"/>
<stop offset="0.99261" stop-color="#FF4E16" stop-opacity="0.55"/>
<stop offset="0.99271" stop-color="#F30000" stop-opacity="0.35"/>
<stop offset="0.99281" stop-color="#FF4E16"/>
</linearGradient>
<linearGradient id="paint3_linear" x1="351.939" y1="21.4594" x2="397.88" y2="69.6822" gradientUnits="userSpaceOnUse">
<stop stop-color="#FF4E16"/>
<stop offset="0.99261" stop-color="#FF4E16" stop-opacity="0.55"/>
<stop offset="0.99271" stop-color="#F30000" stop-opacity="0.35"/>
<stop offset="0.99281" stop-color="#FF4E16"/>
</linearGradient>
</defs>
</svg>
