<svg width="468" height="145" viewBox="0 0 468 145" fill="none" xmlns="http://www.w3.org/2000/svg">
<g filter="url(#filter0_d)">
<path d="M0 20C0 8.95432 8.95431 0 20 0H204.148C215.193 0 224.148 8.95431 224.148 20V97.3182C224.148 108.364 215.193 117.318 204.148 117.318H54.0525L10.4696 136.57L22.2343 117.318H20C8.9543 117.318 0 108.364 0 97.3182V20Z" fill="white"/>
</g>
<path d="M30.8203 38.5H29.2578L25.0938 32.9609L23.8984 34.0234V38.5H22.5703V27.0781H23.8984V32.7422L29.0781 27.0781H30.6484L26.0547 32.0391L30.8203 38.5ZM35.9 38.5H34.6031V29.9375H35.9V38.5ZM34.4937 27.6172C34.4937 27.3203 34.5667 27.1042 34.7125 26.9688C34.8583 26.8281 35.0406 26.7578 35.2594 26.7578C35.4677 26.7578 35.6474 26.8281 35.7984 26.9688C35.9495 27.1094 36.025 27.3255 36.025 27.6172C36.025 27.9089 35.9495 28.1276 35.7984 28.2734C35.6474 28.4141 35.4677 28.4844 35.2594 28.4844C35.0406 28.4844 34.8583 28.4141 34.7125 28.2734C34.5667 28.1276 34.4937 27.9089 34.4937 27.6172ZM40.0109 42.3438C39.5161 42.3438 39.1151 42.2786 38.8078 42.1484V41.0938C39.1672 41.1979 39.5214 41.25 39.8703 41.25C40.2766 41.25 40.5734 41.138 40.7609 40.9141C40.9536 40.6953 41.05 40.3594 41.05 39.9062V29.9375H42.3469V39.8125C42.3469 41.5 41.5682 42.3438 40.0109 42.3438ZM40.9406 27.6172C40.9406 27.3203 41.0135 27.1042 41.1594 26.9688C41.3052 26.8281 41.4875 26.7578 41.7062 26.7578C41.9146 26.7578 42.0943 26.8281 42.2453 26.9688C42.3964 27.1094 42.4719 27.3255 42.4719 27.6172C42.4719 27.9089 42.3964 28.1276 42.2453 28.2734C42.0943 28.4141 41.9146 28.4844 41.7062 28.4844C41.4875 28.4844 41.3052 28.4141 41.1594 28.2734C41.0135 28.1276 40.9406 27.9089 40.9406 27.6172ZM48.7938 38.5H47.4969V29.9375H48.7938V38.5ZM47.3875 27.6172C47.3875 27.3203 47.4604 27.1042 47.6063 26.9688C47.7521 26.8281 47.9344 26.7578 48.1531 26.7578C48.3615 26.7578 48.5411 26.8281 48.6922 26.9688C48.8432 27.1094 48.9188 27.3255 48.9188 27.6172C48.9188 27.9089 48.8432 28.1276 48.6922 28.2734C48.5411 28.4141 48.3615 28.4844 48.1531 28.4844C47.9344 28.4844 47.7521 28.4141 47.6063 28.2734C47.4604 28.1276 47.3875 27.9089 47.3875 27.6172ZM52.9047 42.3438C52.4099 42.3438 52.0089 42.2786 51.7016 42.1484V41.0938C52.0609 41.1979 52.4151 41.25 52.7641 41.25C53.1703 41.25 53.4672 41.138 53.6547 40.9141C53.8474 40.6953 53.9438 40.3594 53.9438 39.9062V29.9375H55.2406V39.8125C55.2406 41.5 54.462 42.3438 52.9047 42.3438ZM53.8344 27.6172C53.8344 27.3203 53.9073 27.1042 54.0531 26.9688C54.199 26.8281 54.3813 26.7578 54.6 26.7578C54.8083 26.7578 54.988 26.8281 55.1391 26.9688C55.2901 27.1094 55.3656 27.3255 55.3656 27.6172C55.3656 27.9089 55.2901 28.1276 55.1391 28.2734C54.988 28.4141 54.8083 28.4844 54.6 28.4844C54.3813 28.4844 54.199 28.4141 54.0531 28.2734C53.9073 28.1276 53.8344 27.9089 53.8344 27.6172ZM61.6875 38.5H60.3906V29.9375H61.6875V38.5ZM60.2812 27.6172C60.2812 27.3203 60.3542 27.1042 60.5 26.9688C60.6458 26.8281 60.8281 26.7578 61.0469 26.7578C61.2552 26.7578 61.4349 26.8281 61.5859 26.9688C61.737 27.1094 61.8125 27.3255 61.8125 27.6172C61.8125 27.9089 61.737 28.1276 61.5859 28.2734C61.4349 28.4141 61.2552 28.4844 61.0469 28.4844C60.8281 28.4844 60.6458 28.4141 60.5 28.2734C60.3542 28.1276 60.2812 27.9089 60.2812 27.6172ZM87.8094 30.4062C87.8094 31.5625 87.4135 32.4531 86.6219 33.0781C85.8354 33.6979 84.7078 34.0078 83.2391 34.0078H81.8953V38.5H80.5672V27.0781H83.5281C86.3823 27.0781 87.8094 28.1875 87.8094 30.4062ZM81.8953 32.8672H83.0906C84.2677 32.8672 85.1193 32.6771 85.6453 32.2969C86.1714 31.9167 86.4344 31.3073 86.4344 30.4688C86.4344 29.7135 86.187 29.151 85.6922 28.7812C85.1974 28.4115 84.4266 28.2266 83.3797 28.2266H81.8953V32.8672ZM97.6781 38.5L97.4203 37.2812H97.3578C96.9307 37.8177 96.5036 38.1823 96.0766 38.375C95.6547 38.5625 95.126 38.6562 94.4906 38.6562C93.6417 38.6562 92.975 38.4375 92.4906 38C92.0115 37.5625 91.7719 36.9401 91.7719 36.1328C91.7719 34.4036 93.1547 33.4974 95.9203 33.4141L97.3734 33.3672V32.8359C97.3734 32.1641 97.2276 31.6693 96.9359 31.3516C96.6495 31.0286 96.1885 30.8672 95.5531 30.8672C94.8396 30.8672 94.0323 31.0859 93.1312 31.5234L92.7328 30.5312C93.1547 30.3021 93.6156 30.1224 94.1156 29.9922C94.6208 29.862 95.126 29.7969 95.6312 29.7969C96.6521 29.7969 97.4073 30.0234 97.8969 30.4766C98.3917 30.9297 98.6391 31.6562 98.6391 32.6562V38.5H97.6781ZM94.7484 37.5859C95.5557 37.5859 96.1885 37.3646 96.6469 36.9219C97.1104 36.4792 97.3422 35.8594 97.3422 35.0625V34.2891L96.0453 34.3438C95.0141 34.3802 94.2693 34.5417 93.8109 34.8281C93.3578 35.1094 93.1312 35.5495 93.1312 36.1484C93.1312 36.6172 93.2719 36.974 93.5531 37.2188C93.8396 37.4635 94.238 37.5859 94.7484 37.5859ZM109.547 37.3516H109.477C108.878 38.2214 107.982 38.6562 106.789 38.6562C105.669 38.6562 104.797 38.2734 104.172 37.5078C103.552 36.7422 103.242 35.6536 103.242 34.2422C103.242 32.8307 103.555 31.7344 104.18 30.9531C104.805 30.1719 105.674 29.7812 106.789 29.7812C107.951 29.7812 108.841 30.2031 109.461 31.0469H109.562L109.508 30.4297L109.477 29.8281V26.3438H110.773V38.5H109.719L109.547 37.3516ZM106.953 37.5703C107.839 37.5703 108.479 37.3307 108.875 36.8516C109.276 36.3672 109.477 35.5885 109.477 34.5156V34.2422C109.477 33.0286 109.273 32.1641 108.867 31.6484C108.466 31.1276 107.823 30.8672 106.938 30.8672C106.177 30.8672 105.594 31.1641 105.188 31.7578C104.786 32.3464 104.586 33.1797 104.586 34.2578C104.586 35.3516 104.786 36.1771 105.188 36.7344C105.589 37.2917 106.177 37.5703 106.953 37.5703ZM126.845 38.5V32.9297C126.845 32.2474 126.699 31.737 126.408 31.3984C126.116 31.0547 125.663 30.8828 125.048 30.8828C124.241 30.8828 123.645 31.1146 123.259 31.5781C122.874 32.0417 122.681 32.7552 122.681 33.7188V38.5H121.384V32.9297C121.384 32.2474 121.239 31.737 120.947 31.3984C120.655 31.0547 120.199 30.8828 119.58 30.8828C118.767 30.8828 118.171 31.1276 117.791 31.6172C117.416 32.1016 117.228 32.8984 117.228 34.0078V38.5H115.931V29.9375H116.986L117.197 31.1094H117.259C117.504 30.6927 117.848 30.3672 118.291 30.1328C118.739 29.8984 119.239 29.7812 119.791 29.7812C121.129 29.7812 122.004 30.2656 122.416 31.2344H122.478C122.733 30.7865 123.103 30.4323 123.588 30.1719C124.072 29.9115 124.624 29.7812 125.244 29.7812C126.213 29.7812 126.936 30.0312 127.416 30.5312C127.9 31.026 128.142 31.8203 128.142 32.9141V38.5H126.845ZM138.488 38.5L138.23 37.2812H138.167C137.74 37.8177 137.313 38.1823 136.886 38.375C136.464 38.5625 135.935 38.6562 135.3 38.6562C134.451 38.6562 133.784 38.4375 133.3 38C132.821 37.5625 132.581 36.9401 132.581 36.1328C132.581 34.4036 133.964 33.4974 136.73 33.4141L138.183 33.3672V32.8359C138.183 32.1641 138.037 31.6693 137.745 31.3516C137.459 31.0286 136.998 30.8672 136.363 30.8672C135.649 30.8672 134.842 31.0859 133.941 31.5234L133.542 30.5312C133.964 30.3021 134.425 30.1224 134.925 29.9922C135.43 29.862 135.935 29.7969 136.441 29.7969C137.461 29.7969 138.217 30.0234 138.706 30.4766C139.201 30.9297 139.448 31.6562 139.448 32.6562V38.5H138.488ZM135.558 37.5859C136.365 37.5859 136.998 37.3646 137.456 36.9219C137.92 36.4792 138.152 35.8594 138.152 35.0625V34.2891L136.855 34.3438C135.823 34.3802 135.079 34.5417 134.62 34.8281C134.167 35.1094 133.941 35.5495 133.941 36.1484C133.941 36.6172 134.081 36.974 134.363 37.2188C134.649 37.4635 135.047 37.5859 135.558 37.5859ZM148.513 38.6562C147.955 38.6562 147.445 38.5547 146.981 38.3516C146.523 38.1432 146.138 37.8255 145.825 37.3984H145.731C145.794 37.8984 145.825 38.3724 145.825 38.8203V42.3438H144.528V29.9375H145.583L145.763 31.1094H145.825C146.158 30.6406 146.546 30.3021 146.989 30.0938C147.432 29.8854 147.94 29.7812 148.513 29.7812C149.648 29.7812 150.523 30.1693 151.138 30.9453C151.757 31.7214 152.067 32.8099 152.067 34.2109C152.067 35.6172 151.752 36.7109 151.122 37.4922C150.497 38.2682 149.627 38.6562 148.513 38.6562ZM148.325 30.8828C147.45 30.8828 146.817 31.125 146.427 31.6094C146.036 32.0938 145.835 32.8646 145.825 33.9219V34.2109C145.825 35.4141 146.026 36.276 146.427 36.7969C146.828 37.3125 147.471 37.5703 148.356 37.5703C149.096 37.5703 149.674 37.2708 150.091 36.6719C150.513 36.0729 150.723 35.2474 150.723 34.1953C150.723 33.1276 150.513 32.3099 150.091 31.7422C149.674 31.1693 149.085 30.8828 148.325 30.8828ZM160.725 38.6562C160.168 38.6562 159.657 38.5547 159.194 38.3516C158.735 38.1432 158.35 37.8255 158.038 37.3984H157.944C158.006 37.8984 158.038 38.3724 158.038 38.8203V42.3438H156.741V29.9375H157.795L157.975 31.1094H158.038C158.371 30.6406 158.759 30.3021 159.202 30.0938C159.644 29.8854 160.152 29.7812 160.725 29.7812C161.86 29.7812 162.735 30.1693 163.35 30.9453C163.97 31.7214 164.28 32.8099 164.28 34.2109C164.28 35.6172 163.965 36.7109 163.334 37.4922C162.709 38.2682 161.84 38.6562 160.725 38.6562ZM160.538 30.8828C159.663 30.8828 159.03 31.125 158.639 31.6094C158.248 32.0938 158.048 32.8646 158.038 33.9219V34.2109C158.038 35.4141 158.238 36.276 158.639 36.7969C159.04 37.3125 159.683 37.5703 160.569 37.5703C161.308 37.5703 161.886 37.2708 162.303 36.6719C162.725 36.0729 162.936 35.2474 162.936 34.1953C162.936 33.1276 162.725 32.3099 162.303 31.7422C161.886 31.1693 161.298 30.8828 160.538 30.8828ZM172.57 38.6562C171.305 38.6562 170.305 38.2708 169.57 37.5C168.841 36.7292 168.477 35.6589 168.477 34.2891C168.477 32.9089 168.815 31.8125 169.492 31C170.174 30.1875 171.089 29.7812 172.234 29.7812C173.307 29.7812 174.156 30.1354 174.781 30.8438C175.406 31.5469 175.719 32.4766 175.719 33.6328V34.4531H169.82C169.846 35.4583 170.099 36.2214 170.578 36.7422C171.062 37.263 171.742 37.5234 172.617 37.5234C173.539 37.5234 174.451 37.3307 175.352 36.9453V38.1016C174.893 38.2995 174.458 38.4401 174.047 38.5234C173.641 38.612 173.148 38.6562 172.57 38.6562ZM172.219 30.8672C171.531 30.8672 170.982 31.0911 170.57 31.5391C170.164 31.987 169.924 32.6068 169.852 33.3984H174.328C174.328 32.5807 174.146 31.9557 173.781 31.5234C173.417 31.0859 172.896 30.8672 172.219 30.8672ZM184.244 29.7812C184.624 29.7812 184.965 29.8125 185.267 29.875L185.087 31.0781C184.733 31 184.421 30.9609 184.15 30.9609C183.457 30.9609 182.864 31.2422 182.369 31.8047C181.879 32.3672 181.634 33.0677 181.634 33.9062V38.5H180.337V29.9375H181.408L181.556 31.5234H181.619C181.936 30.9661 182.319 30.5365 182.767 30.2344C183.215 29.9323 183.707 29.7812 184.244 29.7812ZM29.4922 66.5H21.6406V65.4609L27.7031 56.2734H21.8281V55.0781H29.3203V56.1172L23.2578 65.2969H29.4922V66.5ZM35.2125 66.5H33.9156V57.9375H35.2125V66.5ZM33.8062 55.6172C33.8062 55.3203 33.8792 55.1042 34.025 54.9688C34.1708 54.8281 34.3531 54.7578 34.5719 54.7578C34.7802 54.7578 34.9599 54.8281 35.1109 54.9688C35.262 55.1094 35.3375 55.3255 35.3375 55.6172C35.3375 55.9089 35.262 56.1276 35.1109 56.2734C34.9599 56.4141 34.7802 56.4844 34.5719 56.4844C34.3531 56.4844 34.1708 56.4141 34.025 56.2734C33.8792 56.1276 33.8062 55.9089 33.8062 55.6172ZM41.6594 66.5H40.3625V54.3438H41.6594V66.5ZM48.1063 66.5H46.8094V54.3438H48.1063V66.5ZM60.6469 62.2109C60.6469 63.6068 60.2953 64.6979 59.5922 65.4844C58.8891 66.2656 57.9177 66.6562 56.6781 66.6562C55.9125 66.6562 55.2328 66.4766 54.6391 66.1172C54.0453 65.7578 53.587 65.2422 53.2641 64.5703C52.9411 63.8984 52.7797 63.112 52.7797 62.2109C52.7797 60.8151 53.1286 59.7292 53.8266 58.9531C54.5245 58.1719 55.4932 57.7812 56.7328 57.7812C57.9307 57.7812 58.8813 58.1797 59.5844 58.9766C60.2927 59.7734 60.6469 60.8516 60.6469 62.2109ZM54.1234 62.2109C54.1234 63.3047 54.3422 64.138 54.7797 64.7109C55.2172 65.2839 55.8604 65.5703 56.7094 65.5703C57.5583 65.5703 58.2016 65.2865 58.6391 64.7188C59.0818 64.1458 59.3031 63.3099 59.3031 62.2109C59.3031 61.1224 59.0818 60.2969 58.6391 59.7344C58.2016 59.1667 57.5531 58.8828 56.6938 58.8828C55.8448 58.8828 55.2042 59.1615 54.7719 59.7188C54.3396 60.276 54.1234 61.1068 54.1234 62.2109ZM72.3203 66.5L70.75 61.4766C70.651 61.1693 70.4661 60.4714 70.1953 59.3828H70.1328C69.9245 60.2943 69.7422 60.9974 69.5859 61.4922L67.9688 66.5H66.4688L64.1328 57.9375H65.4922C66.0443 60.0885 66.4635 61.7266 66.75 62.8516C67.0417 63.9766 67.2083 64.7344 67.25 65.125H67.3125C67.3698 64.8281 67.4609 64.4453 67.5859 63.9766C67.7161 63.5026 67.8281 63.1276 67.9219 62.8516L69.4922 57.9375H70.8984L72.4297 62.8516C72.7214 63.7474 72.9193 64.5 73.0234 65.1094H73.0859C73.1068 64.9219 73.1615 64.6328 73.25 64.2422C73.3438 63.8516 73.888 61.75 74.8828 57.9375H76.2266L73.8594 66.5H72.3203ZM98.6297 56.9297C97.7182 56.9297 97.0125 57.2734 96.5125 57.9609C96.0125 58.6432 95.7625 59.5964 95.7625 60.8203C95.7625 63.3672 96.7182 64.6406 98.6297 64.6406C99.4318 64.6406 100.403 64.4401 101.544 64.0391V66.0703C100.606 66.4609 99.5594 66.6562 98.4031 66.6562C96.7417 66.6562 95.4708 66.1536 94.5906 65.1484C93.7104 64.138 93.2703 62.6901 93.2703 60.8047C93.2703 59.6172 93.4865 58.5781 93.9187 57.6875C94.351 56.7917 94.9708 56.1068 95.7781 55.6328C96.5906 55.1536 97.5411 54.9141 98.6297 54.9141C99.7391 54.9141 100.854 55.1823 101.973 55.7188L101.192 57.6875C100.765 57.4844 100.335 57.3073 99.9031 57.1562C99.4708 57.0052 99.0464 56.9297 98.6297 56.9297ZM111.069 57.6016C111.392 57.6016 111.66 57.625 111.873 57.6719L111.694 59.9062C111.501 59.8542 111.267 59.8281 110.991 59.8281C110.23 59.8281 109.636 60.0234 109.209 60.4141C108.787 60.8047 108.577 61.3516 108.577 62.0547V66.5H106.194V57.7656H107.998L108.35 59.2344H108.467C108.738 58.7448 109.103 58.3516 109.561 58.0547C110.024 57.7526 110.527 57.6016 111.069 57.6016ZM121.406 66.5L120.945 65.3125H120.883C120.482 65.8177 120.068 66.1693 119.641 66.3672C119.219 66.5599 118.667 66.6562 117.984 66.6562C117.146 66.6562 116.484 66.4167 116 65.9375C115.521 65.4583 115.281 64.776 115.281 63.8906C115.281 62.9635 115.604 62.2812 116.25 61.8438C116.901 61.401 117.88 61.1562 119.188 61.1094L120.703 61.0625V60.6797C120.703 59.7943 120.25 59.3516 119.344 59.3516C118.646 59.3516 117.826 59.5625 116.883 59.9844L116.094 58.375C117.099 57.849 118.214 57.5859 119.438 57.5859C120.609 57.5859 121.508 57.8411 122.133 58.3516C122.758 58.862 123.07 59.638 123.07 60.6797V66.5H121.406ZM120.703 62.4531L119.781 62.4844C119.089 62.5052 118.573 62.6302 118.234 62.8594C117.896 63.0885 117.727 63.4375 117.727 63.9062C117.727 64.5781 118.112 64.9141 118.883 64.9141C119.435 64.9141 119.875 64.7552 120.203 64.4375C120.536 64.1198 120.703 63.6979 120.703 63.1719V62.4531ZM127.83 55.5078C127.83 54.7318 128.262 54.3438 129.127 54.3438C129.991 54.3438 130.423 54.7318 130.423 55.5078C130.423 55.8776 130.314 56.1667 130.095 56.375C129.882 56.5781 129.559 56.6797 129.127 56.6797C128.262 56.6797 127.83 56.2891 127.83 55.5078ZM130.314 66.5H127.931V57.7656H130.314V66.5ZM142.823 57.7656V58.9766L141.456 59.3281C141.706 59.7188 141.831 60.1562 141.831 60.6406C141.831 61.5781 141.503 62.3099 140.847 62.8359C140.196 63.3568 139.29 63.6172 138.128 63.6172L137.698 63.5938L137.347 63.5547C137.102 63.7422 136.98 63.9505 136.98 64.1797C136.98 64.5234 137.417 64.6953 138.292 64.6953H139.777C140.735 64.6953 141.464 64.901 141.964 65.3125C142.469 65.724 142.722 66.3281 142.722 67.125C142.722 68.1458 142.295 68.9375 141.441 69.5C140.592 70.0625 139.37 70.3438 137.777 70.3438C136.558 70.3438 135.626 70.1302 134.98 69.7031C134.339 69.2812 134.019 68.6875 134.019 67.9219C134.019 67.3958 134.183 66.9557 134.511 66.6016C134.839 66.2474 135.321 65.9948 135.956 65.8438C135.711 65.7396 135.498 65.5703 135.316 65.3359C135.133 65.0964 135.042 64.8438 135.042 64.5781C135.042 64.2448 135.139 63.9688 135.331 63.75C135.524 63.526 135.803 63.3073 136.167 63.0938C135.709 62.8958 135.344 62.5781 135.073 62.1406C134.808 61.7031 134.675 61.1875 134.675 60.5938C134.675 59.6406 134.985 58.9036 135.605 58.3828C136.224 57.862 137.11 57.6016 138.261 57.6016C138.506 57.6016 138.795 57.625 139.128 57.6719C139.467 57.7135 139.683 57.7448 139.777 57.7656H142.823ZM136.081 67.7344C136.081 68.0625 136.238 68.3203 136.55 68.5078C136.868 68.6953 137.31 68.7891 137.878 68.7891C138.732 68.7891 139.402 68.6719 139.886 68.4375C140.37 68.2031 140.613 67.8828 140.613 67.4766C140.613 67.1484 140.469 66.9219 140.183 66.7969C139.896 66.6719 139.454 66.6094 138.855 66.6094H137.62C137.183 66.6094 136.816 66.7109 136.519 66.9141C136.227 67.1224 136.081 67.3958 136.081 67.7344ZM136.948 60.625C136.948 61.099 137.055 61.474 137.269 61.75C137.488 62.026 137.818 62.1641 138.261 62.1641C138.709 62.1641 139.037 62.026 139.245 61.75C139.454 61.474 139.558 61.099 139.558 60.625C139.558 59.5729 139.126 59.0469 138.261 59.0469C137.386 59.0469 136.948 59.5729 136.948 60.625ZM152.763 63.9062C152.763 64.8021 152.45 65.4844 151.825 65.9531C151.205 66.4219 150.276 66.6562 149.036 66.6562C148.401 66.6562 147.859 66.612 147.411 66.5234C146.963 66.4401 146.544 66.3151 146.153 66.1484V64.1797C146.596 64.388 147.093 64.5625 147.645 64.7031C148.203 64.8438 148.692 64.9141 149.114 64.9141C149.979 64.9141 150.411 64.6641 150.411 64.1641C150.411 63.9766 150.354 63.8255 150.239 63.7109C150.124 63.5911 149.927 63.4583 149.645 63.3125C149.364 63.1615 148.989 62.987 148.52 62.7891C147.848 62.5078 147.354 62.2474 147.036 62.0078C146.723 61.7682 146.494 61.4948 146.348 61.1875C146.208 60.875 146.138 60.4922 146.138 60.0391C146.138 59.263 146.437 58.6641 147.036 58.2422C147.64 57.8151 148.494 57.6016 149.598 57.6016C150.651 57.6016 151.674 57.8307 152.669 58.2891L151.95 60.0078C151.513 59.8203 151.104 59.6667 150.723 59.5469C150.343 59.4271 149.955 59.3672 149.559 59.3672C148.856 59.3672 148.505 59.5573 148.505 59.9375C148.505 60.151 148.617 60.3359 148.841 60.4922C149.07 60.6484 149.567 60.8802 150.333 61.1875C151.015 61.4635 151.515 61.7214 151.833 61.9609C152.151 62.2005 152.385 62.4766 152.536 62.7891C152.687 63.1016 152.763 63.474 152.763 63.9062ZM159.405 66.5H157.022V54.3438H159.405V66.5ZM164.211 55.5078C164.211 54.7318 164.643 54.3438 165.508 54.3438C166.372 54.3438 166.805 54.7318 166.805 55.5078C166.805 55.8776 166.695 56.1667 166.477 56.375C166.263 56.5781 165.94 56.6797 165.508 56.6797C164.643 56.6797 164.211 56.2891 164.211 55.5078ZM166.695 66.5H164.312V57.7656H166.695V66.5ZM177.697 63.9062C177.697 64.8021 177.384 65.4844 176.759 65.9531C176.14 66.4219 175.21 66.6562 173.97 66.6562C173.335 66.6562 172.793 66.612 172.345 66.5234C171.897 66.4401 171.478 66.3151 171.087 66.1484V64.1797C171.53 64.388 172.028 64.5625 172.58 64.7031C173.137 64.8438 173.627 64.9141 174.048 64.9141C174.913 64.9141 175.345 64.6641 175.345 64.1641C175.345 63.9766 175.288 63.8255 175.173 63.7109C175.059 63.5911 174.861 63.4583 174.58 63.3125C174.298 63.1615 173.923 62.987 173.455 62.7891C172.783 62.5078 172.288 62.2474 171.97 62.0078C171.658 61.7682 171.429 61.4948 171.283 61.1875C171.142 60.875 171.072 60.4922 171.072 60.0391C171.072 59.263 171.371 58.6641 171.97 58.2422C172.574 57.8151 173.429 57.6016 174.533 57.6016C175.585 57.6016 176.608 57.8307 177.603 58.2891L176.884 60.0078C176.447 59.8203 176.038 59.6667 175.658 59.5469C175.278 59.4271 174.89 59.3672 174.494 59.3672C173.791 59.3672 173.439 59.5573 173.439 59.9375C173.439 60.151 173.551 60.3359 173.775 60.4922C174.004 60.6484 174.502 60.8802 175.267 61.1875C175.949 61.4635 176.449 61.7214 176.767 61.9609C177.085 62.2005 177.319 62.4766 177.47 62.7891C177.621 63.1016 177.697 63.474 177.697 63.9062ZM185.636 64.7578C186.053 64.7578 186.553 64.6667 187.136 64.4844V66.2578C186.542 66.5234 185.813 66.6562 184.948 66.6562C183.995 66.6562 183.3 66.4167 182.863 65.9375C182.43 65.4531 182.214 64.7292 182.214 63.7656V59.5547H181.073V58.5469L182.386 57.75L183.073 55.9062H184.597V57.7656H187.042V59.5547H184.597V63.7656C184.597 64.1042 184.691 64.3542 184.878 64.5156C185.071 64.6771 185.323 64.7578 185.636 64.7578ZM29.75 94.5L28.3281 90.8672H23.75L22.3438 94.5H21L25.5156 83.0312H26.6328L31.125 94.5H29.75ZM27.9141 89.6719L26.5859 86.1328C26.4141 85.6849 26.237 85.1354 26.0547 84.4844C25.9401 84.9844 25.776 85.5339 25.5625 86.1328L24.2188 89.6719H27.9141ZM36.1969 94.5H34.9V85.9375H36.1969V94.5ZM34.7906 83.6172C34.7906 83.3203 34.8635 83.1042 35.0094 82.9688C35.1552 82.8281 35.3375 82.7578 35.5562 82.7578C35.7646 82.7578 35.9443 82.8281 36.0953 82.9688C36.2464 83.1094 36.3219 83.3255 36.3219 83.6172C36.3219 83.9089 36.2464 84.1276 36.0953 84.2734C35.9443 84.4141 35.7646 84.4844 35.5562 84.4844C35.3375 84.4844 35.1552 84.4141 35.0094 84.2734C34.8635 84.1276 34.7906 83.9089 34.7906 83.6172ZM45.2531 85.7812C45.6333 85.7812 45.9745 85.8125 46.2766 85.875L46.0969 87.0781C45.7427 87 45.4302 86.9609 45.1594 86.9609C44.4667 86.9609 43.8729 87.2422 43.3781 87.8047C42.8885 88.3672 42.6437 89.0677 42.6437 89.9062V94.5H41.3469V85.9375H42.4172L42.5656 87.5234H42.6281C42.9458 86.9661 43.3286 86.5365 43.7766 86.2344C44.2245 85.9323 44.7167 85.7812 45.2531 85.7812ZM50.4734 83.0781H53.7C55.2156 83.0781 56.312 83.3047 56.9891 83.7578C57.6661 84.2109 58.0047 84.9271 58.0047 85.9062C58.0047 86.5833 57.8146 87.1432 57.4344 87.5859C57.0594 88.0234 56.5099 88.3073 55.7859 88.4375V88.5156C57.5203 88.8125 58.3875 89.724 58.3875 91.25C58.3875 92.2708 58.0411 93.0677 57.3484 93.6406C56.6609 94.2135 55.6974 94.5 54.4578 94.5H50.4734V83.0781ZM51.8016 87.9688H53.9891C54.9266 87.9688 55.601 87.8229 56.0125 87.5312C56.424 87.2344 56.6297 86.737 56.6297 86.0391C56.6297 85.3984 56.4005 84.9375 55.9422 84.6562C55.4839 84.3698 54.7547 84.2266 53.7547 84.2266H51.8016V87.9688ZM51.8016 89.0938V93.3672H54.1844C55.1063 93.3672 55.799 93.1901 56.2625 92.8359C56.7313 92.4766 56.9656 91.9167 56.9656 91.1562C56.9656 90.4479 56.726 89.9271 56.2469 89.5938C55.7729 89.2604 55.049 89.0938 54.075 89.0938H51.8016ZM72.1703 94.5H70.6547L64.4125 84.9141H64.35C64.4333 86.0391 64.475 87.0703 64.475 88.0078V94.5H63.2484V83.0781H64.7484L70.975 92.625H71.0375C71.0271 92.4844 71.0036 92.0339 70.9672 91.2734C70.9307 90.5078 70.9177 89.9609 70.9281 89.6328V83.0781H72.1703V94.5ZM77.7109 83.0781H80.9375C82.4531 83.0781 83.5495 83.3047 84.2266 83.7578C84.9036 84.2109 85.2422 84.9271 85.2422 85.9062C85.2422 86.5833 85.0521 87.1432 84.6719 87.5859C84.2969 88.0234 83.7474 88.3073 83.0234 88.4375V88.5156C84.7578 88.8125 85.625 89.724 85.625 91.25C85.625 92.2708 85.2786 93.0677 84.5859 93.6406C83.8984 94.2135 82.9349 94.5 81.6953 94.5H77.7109V83.0781ZM79.0391 87.9688H81.2266C82.1641 87.9688 82.8385 87.8229 83.25 87.5312C83.6615 87.2344 83.8672 86.737 83.8672 86.0391C83.8672 85.3984 83.638 84.9375 83.1797 84.6562C82.7214 84.3698 81.9922 84.2266 80.9922 84.2266H79.0391V87.9688ZM79.0391 89.0938V93.3672H81.4219C82.3438 93.3672 83.0365 93.1901 83.5 92.8359C83.9688 92.4766 84.2031 91.9167 84.2031 91.1562C84.2031 90.4479 83.9635 89.9271 83.4844 89.5938C83.0104 89.2604 82.2865 89.0938 81.3125 89.0938H79.0391ZM110.942 94.5H103.091V93.4609L109.153 84.2734H103.278V83.0781H110.77V84.1172L104.708 93.2969H110.942V94.5ZM116.584 85.9375V91.4922C116.584 92.1901 116.743 92.7109 117.061 93.0547C117.379 93.3984 117.876 93.5703 118.553 93.5703C119.449 93.5703 120.103 93.3255 120.514 92.8359C120.931 92.3464 121.139 91.5469 121.139 90.4375V85.9375H122.436V94.5H121.366L121.178 93.3516H121.108C120.842 93.7734 120.472 94.0964 119.998 94.3203C119.53 94.5443 118.993 94.6562 118.389 94.6562C117.347 94.6562 116.566 94.4089 116.045 93.9141C115.53 93.4193 115.272 92.6276 115.272 91.5391V85.9375H116.584ZM138.508 94.5V88.9297C138.508 88.2474 138.362 87.737 138.07 87.3984C137.779 87.0547 137.326 86.8828 136.711 86.8828C135.904 86.8828 135.307 87.1146 134.922 87.5781C134.536 88.0417 134.344 88.7552 134.344 89.7188V94.5H133.047V88.9297C133.047 88.2474 132.901 87.737 132.609 87.3984C132.318 87.0547 131.862 86.8828 131.242 86.8828C130.43 86.8828 129.833 87.1276 129.453 87.6172C129.078 88.1016 128.891 88.8984 128.891 90.0078V94.5H127.594V85.9375H128.648L128.859 87.1094H128.922C129.167 86.6927 129.51 86.3672 129.953 86.1328C130.401 85.8984 130.901 85.7812 131.453 85.7812C132.792 85.7812 133.667 86.2656 134.078 87.2344H134.141C134.396 86.7865 134.766 86.4323 135.25 86.1719C135.734 85.9115 136.286 85.7812 136.906 85.7812C137.875 85.7812 138.599 86.0312 139.078 86.5312C139.562 87.026 139.805 87.8203 139.805 88.9141V94.5H138.508ZM148.869 94.6562C148.311 94.6562 147.801 94.5547 147.338 94.3516C146.879 94.1432 146.494 93.8255 146.181 93.3984H146.088C146.15 93.8984 146.181 94.3724 146.181 94.8203V98.3438H144.884V85.9375H145.939L146.119 87.1094H146.181C146.515 86.6406 146.903 86.3021 147.345 86.0938C147.788 85.8854 148.296 85.7812 148.869 85.7812C150.004 85.7812 150.879 86.1693 151.494 86.9453C152.114 87.7214 152.423 88.8099 152.423 90.2109C152.423 91.6172 152.108 92.7109 151.478 93.4922C150.853 94.2682 149.983 94.6562 148.869 94.6562ZM148.681 86.8828C147.806 86.8828 147.173 87.125 146.783 87.6094C146.392 88.0938 146.192 88.8646 146.181 89.9219V90.2109C146.181 91.4141 146.382 92.276 146.783 92.7969C147.184 93.3125 147.827 93.5703 148.713 93.5703C149.452 93.5703 150.03 93.2708 150.447 92.6719C150.869 92.0729 151.08 91.2474 151.08 90.1953C151.08 89.1276 150.869 88.3099 150.447 87.7422C150.03 87.1693 149.442 86.8828 148.681 86.8828ZM160.714 94.6562C159.448 94.6562 158.448 94.2708 157.714 93.5C156.985 92.7292 156.62 91.6589 156.62 90.2891C156.62 88.9089 156.959 87.8125 157.636 87C158.318 86.1875 159.232 85.7812 160.378 85.7812C161.451 85.7812 162.3 86.1354 162.925 86.8438C163.55 87.5469 163.863 88.4766 163.863 89.6328V90.4531H157.964C157.99 91.4583 158.243 92.2214 158.722 92.7422C159.206 93.263 159.886 93.5234 160.761 93.5234C161.683 93.5234 162.594 93.3307 163.495 92.9453V94.1016C163.037 94.2995 162.602 94.4401 162.191 94.5234C161.784 94.612 161.292 94.6562 160.714 94.6562ZM160.363 86.8672C159.675 86.8672 159.126 87.0911 158.714 87.5391C158.308 87.987 158.068 88.6068 157.995 89.3984H162.472C162.472 88.5807 162.29 87.9557 161.925 87.5234C161.56 87.0859 161.04 86.8672 160.363 86.8672ZM172.387 85.7812C172.768 85.7812 173.109 85.8125 173.411 85.875L173.231 87.0781C172.877 87 172.565 86.9609 172.294 86.9609C171.601 86.9609 171.007 87.2422 170.512 87.8047C170.023 88.3672 169.778 89.0677 169.778 89.9062V94.5H168.481V85.9375H169.552L169.7 87.5234H169.762C170.08 86.9661 170.463 86.5365 170.911 86.2344C171.359 85.9323 171.851 85.7812 172.387 85.7812Z" fill="#636363"/>
<path d="M68.7125 34.7109H66.8063L66.4078 27.0781H69.1109L68.7125 34.7109ZM66.3766 37.3828C66.3766 36.9453 66.4938 36.6146 66.7281 36.3906C66.9625 36.1667 67.3036 36.0547 67.7516 36.0547C68.1839 36.0547 68.5172 36.1693 68.7516 36.3984C68.9911 36.6276 69.1109 36.9557 69.1109 37.3828C69.1109 37.7943 68.9911 38.1198 68.7516 38.3594C68.512 38.5938 68.1786 38.7109 67.7516 38.7109C67.3141 38.7109 66.9755 38.5964 66.7359 38.3672C66.4964 38.1328 66.3766 37.8047 66.3766 37.3828ZM191.144 34.7109H189.238L188.839 27.0781H191.542L191.144 34.7109ZM188.808 37.3828C188.808 36.9453 188.925 36.6146 189.159 36.3906C189.394 36.1667 189.735 36.0547 190.183 36.0547C190.615 36.0547 190.948 36.1693 191.183 36.3984C191.422 36.6276 191.542 36.9557 191.542 37.3828C191.542 37.7943 191.422 38.1198 191.183 38.3594C190.943 38.5938 190.61 38.7109 190.183 38.7109C189.745 38.7109 189.407 38.5964 189.167 38.3672C188.928 38.1328 188.808 37.8047 188.808 37.3828ZM82.0563 62.7109H80.15L79.7516 55.0781H82.4547L82.0563 62.7109ZM79.7203 65.3828C79.7203 64.9453 79.8375 64.6146 80.0719 64.3906C80.3063 64.1667 80.6474 64.0547 81.0953 64.0547C81.5276 64.0547 81.8609 64.1693 82.0953 64.3984C82.3349 64.6276 82.4547 64.9557 82.4547 65.3828C82.4547 65.7943 82.3349 66.1198 82.0953 66.3594C81.8557 66.5938 81.5224 66.7109 81.0953 66.7109C80.6578 66.7109 80.3193 66.5964 80.0797 66.3672C79.8401 66.1328 79.7203 65.8047 79.7203 65.3828ZM193.309 62.7109H191.403L191.005 55.0781H193.708L193.309 62.7109ZM190.973 65.3828C190.973 64.9453 191.091 64.6146 191.325 64.3906C191.559 64.1667 191.901 64.0547 192.348 64.0547C192.781 64.0547 193.114 64.1693 193.348 64.3984C193.588 64.6276 193.708 64.9557 193.708 65.3828C193.708 65.7943 193.588 66.1198 193.348 66.3594C193.109 66.5938 192.776 66.7109 192.348 66.7109C191.911 66.7109 191.572 66.5964 191.333 66.3672C191.093 66.1328 190.973 65.8047 190.973 65.3828ZM92.1656 90.7109H90.2594L89.8609 83.0781H92.5641L92.1656 90.7109ZM89.8297 93.3828C89.8297 92.9453 89.9469 92.6146 90.1813 92.3906C90.4156 92.1667 90.7568 92.0547 91.2047 92.0547C91.637 92.0547 91.9703 92.1693 92.2047 92.3984C92.4443 92.6276 92.5641 92.9557 92.5641 93.3828C92.5641 93.7943 92.4443 94.1198 92.2047 94.3594C91.9651 94.5938 91.6318 94.7109 91.2047 94.7109C90.7672 94.7109 90.4286 94.5964 90.1891 94.3672C89.9495 94.1328 89.8297 93.8047 89.8297 93.3828ZM179.288 90.7109H177.381L176.983 83.0781H179.686L179.288 90.7109ZM176.952 93.3828C176.952 92.9453 177.069 92.6146 177.303 92.3906C177.538 92.1667 177.879 92.0547 178.327 92.0547C178.759 92.0547 179.092 92.1693 179.327 92.3984C179.566 92.6276 179.686 92.9557 179.686 93.3828C179.686 93.7943 179.566 94.1198 179.327 94.3594C179.087 94.5938 178.754 94.7109 178.327 94.7109C177.889 94.7109 177.551 94.5964 177.311 94.3672C177.071 94.1328 176.952 93.8047 176.952 93.3828Z" fill="#FF4E16"/>
<g filter="url(#filter1_d)">
<path d="M254.616 73.5693C254.616 74.542 254.775 75.2773 255.091 75.7754C255.413 76.2734 255.935 76.5225 256.655 76.5225C257.37 76.5225 257.883 76.2764 258.194 75.7842C258.51 75.2861 258.668 74.5479 258.668 73.5693C258.668 72.5967 258.51 71.8672 258.194 71.3809C257.877 70.8945 257.359 70.6514 256.638 70.6514C255.923 70.6514 255.407 70.8945 255.091 71.3809C254.775 71.8613 254.616 72.5908 254.616 73.5693ZM261.41 73.5693C261.41 75.1689 260.988 76.4199 260.145 77.3223C259.301 78.2246 258.126 78.6758 256.62 78.6758C255.677 78.6758 254.845 78.4707 254.124 78.0605C253.404 77.6445 252.85 77.0498 252.463 76.2764C252.076 75.5029 251.883 74.6006 251.883 73.5693C251.883 71.9639 252.302 70.7158 253.14 69.8252C253.978 68.9346 255.155 68.4893 256.673 68.4893C257.616 68.4893 258.448 68.6943 259.169 69.1045C259.89 69.5146 260.444 70.1035 260.83 70.8711C261.217 71.6387 261.41 72.5381 261.41 73.5693ZM271.81 68.4893C272.173 68.4893 272.475 68.5156 272.715 68.5684L272.513 71.082C272.296 71.0234 272.032 70.9941 271.722 70.9941C270.866 70.9941 270.198 71.2139 269.718 71.6533C269.243 72.0928 269.006 72.708 269.006 73.499V78.5H266.325V68.6738H268.355L268.751 70.3262H268.883C269.188 69.7754 269.598 69.333 270.113 68.999C270.635 68.6592 271.2 68.4893 271.81 68.4893ZM276.821 77.2432C276.821 76.751 276.953 76.3789 277.217 76.127C277.48 75.875 277.864 75.749 278.368 75.749C278.854 75.749 279.229 75.8779 279.493 76.1357C279.763 76.3936 279.897 76.7627 279.897 77.2432C279.897 77.7061 279.763 78.0723 279.493 78.3418C279.223 78.6055 278.848 78.7373 278.368 78.7373C277.876 78.7373 277.495 78.6084 277.225 78.3506C276.956 78.0869 276.821 77.7178 276.821 77.2432ZM276.821 69.9834C276.821 69.4912 276.953 69.1191 277.217 68.8672C277.48 68.6152 277.864 68.4893 278.368 68.4893C278.854 68.4893 279.229 68.6182 279.493 68.876C279.763 69.1338 279.897 69.5029 279.897 69.9834C279.897 70.458 279.76 70.8271 279.484 71.0908C279.215 71.3486 278.843 71.4775 278.368 71.4775C277.876 71.4775 277.495 71.3486 277.225 71.0908C276.956 70.833 276.821 70.4639 276.821 69.9834Z" fill="white"/>
</g>
<g filter="url(#filter2_d)">
<path d="M305.5 57.5C305.5 46.4543 314.454 37.5 325.5 37.5H447.148C458.193 37.5 467.148 46.4543 467.148 57.5V99.3182C467.148 110.364 458.193 119.318 447.148 119.318H445.941L451.824 136.43L417.332 119.318H325.5C314.454 119.318 305.5 110.364 305.5 99.3182V57.5Z" fill="white"/>
</g>
<path d="M344.07 51.9385H360.069V88.3129L344.07 100.737V51.9385Z" fill="url(#paint0_linear)"/>
<path d="M360.069 88.3129V100.737H368.125H376.18V88.3129L368.125 81.6868L360.069 88.3129Z" fill="url(#paint1_linear)"/>
<path d="M433.943 80.2571V70.163H424.726V62.8359H433.943V53.2031H441.912V62.8359V70.163V80.2571H433.943Z" fill="url(#paint2_linear)"/>
<path d="M441.912 62.8359V70.163H451.021V62.8359H441.912Z" fill="url(#paint3_linear)"/>
<path d="M392.362 56.2368L392.362 100.737H386.547L386.547 56.2368H392.362Z" fill="black"/>
<path d="M402.729 73.6831L402.729 100.737H396.913L396.913 73.6831H402.729Z" fill="black"/>
<path d="M410.112 73.6645L418.018 90.5024L417.148 100.556L405.338 76.4242L404.019 73.6645L410.112 73.6645Z" fill="black"/>
<path d="M428.965 76.4811L417.155 100.613L416.927 97.9793L416.294 90.66L424.064 73.7295L430.184 73.7295L428.965 76.4811Z" fill="black"/>
<circle cx="399.821" cy="63.9487" r="2.90768" fill="black"/>
<defs>
<filter id="filter0_d" x="0" y="0" width="232.148" height="144.57" filterUnits="userSpaceOnUse" color-interpolation-filters="sRGB">
<feFlood flood-opacity="0" result="BackgroundImageFix"/>
<feColorMatrix in="SourceAlpha" type="matrix" values="0 0 0 0 0 0 0 0 0 0 0 0 0 0 0 0 0 0 127 0"/>
<feOffset dx="4" dy="4"/>
<feGaussianBlur stdDeviation="2"/>
<feColorMatrix type="matrix" values="0 0 0 0 0 0 0 0 0 0 0 0 0 0 0 0 0 0 0.25 0"/>
<feBlend mode="normal" in2="BackgroundImageFix" result="effect1_dropShadow"/>
<feBlend mode="normal" in="SourceGraphic" in2="effect1_dropShadow" result="shape"/>
</filter>
<filter id="filter1_d" x="248.883" y="65.4893" width="36.0143" height="18.248" filterUnits="userSpaceOnUse" color-interpolation-filters="sRGB">
<feFlood flood-opacity="0" result="BackgroundImageFix"/>
<feColorMatrix in="SourceAlpha" type="matrix" values="0 0 0 0 0 0 0 0 0 0 0 0 0 0 0 0 0 0 127 0"/>
<feOffset dx="1" dy="1"/>
<feGaussianBlur stdDeviation="2"/>
<feColorMatrix type="matrix" values="0 0 0 0 0 0 0 0 0 0 0 0 0 0 0 0 0 0 0.25 0"/>
<feBlend mode="normal" in2="BackgroundImageFix" result="effect1_dropShadow"/>
<feBlend mode="normal" in="SourceGraphic" in2="effect1_dropShadow" result="shape"/>
</filter>
<filter id="filter2_d" x="297.5" y="37.5" width="169.648" height="106.93" filterUnits="userSpaceOnUse" color-interpolation-filters="sRGB">
<feFlood flood-opacity="0" result="BackgroundImageFix"/>
<feColorMatrix in="SourceAlpha" type="matrix" values="0 0 0 0 0 0 0 0 0 0 0 0 0 0 0 0 0 0 127 0"/>
<feOffset dx="-4" dy="4"/>
<feGaussianBlur stdDeviation="2"/>
<feColorMatrix type="matrix" values="0 0 0 0 0 0 0 0 0 0 0 0 0 0 0 0 0 0 0.25 0"/>
<feBlend mode="normal" in2="BackgroundImageFix" result="effect1_dropShadow"/>
<feBlend mode="normal" in="SourceGraphic" in2="effect1_dropShadow" result="shape"/>
</filter>
<linearGradient id="paint0_linear" x1="344.21" y1="52.0075" x2="375.419" y2="101.444" gradientUnits="userSpaceOnUse">
<stop stop-color="#FF4E16"/>
<stop offset="0.9999" stop-color="#FF1616" stop-opacity="0.61"/>
<stop offset="1" stop-color="#FF4E16" stop-opacity="0"/>
</linearGradient>
<linearGradient id="paint1_linear" x1="344.21" y1="52.0075" x2="375.419" y2="101.444" gradientUnits="userSpaceOnUse">
<stop stop-color="#FF4E16"/>
<stop offset="0.9999" stop-color="#FF1616" stop-opacity="0.61"/>
<stop offset="1" stop-color="#FF4E16" stop-opacity="0"/>
</linearGradient>
<linearGradient id="paint2_linear" x1="426.616" y1="48.9759" x2="451.183" y2="74.7635" gradientUnits="userSpaceOnUse">
<stop stop-color="#FF4E16"/>
<stop offset="0.99261" stop-color="#FF4E16" stop-opacity="0.55"/>
<stop offset="0.99271" stop-color="#F30000" stop-opacity="0.35"/>
<stop offset="0.99281" stop-color="#FF4E16"/>
</linearGradient>
<linearGradient id="paint3_linear" x1="426.616" y1="48.9759" x2="451.183" y2="74.7635" gradientUnits="userSpaceOnUse">
<stop stop-color="#FF4E16"/>
<stop offset="0.99261" stop-color="#FF4E16" stop-opacity="0.55"/>
<stop offset="0.99271" stop-color="#F30000" stop-opacity="0.35"/>
<stop offset="0.99281" stop-color="#FF4E16"/>
</linearGradient>
</defs>
</svg>
