<?xml version="1.0" encoding="UTF-8"?>
<svg width="18px" height="26px" viewBox="0 0 18 26" version="1.1" xmlns="http://www.w3.org/2000/svg" xmlns:xlink="http://www.w3.org/1999/xlink">
    <!-- Generator: sketchtool 53.1 (72631) - https://sketchapp.com -->
    <title>2A5CB1F3-CDFA-447E-BB73-C90BFE115C4A</title>
    <desc>Created with sketchtool.</desc>
    <g id="Web-Scrapbook" stroke="none" stroke-width="1" fill="none" fill-rule="evenodd">
        <g id="Liv.rent" transform="translate(-705.000000, -487.000000)" stroke="#303030">
            <g id="Group-14" transform="translate(690.000000, 474.000000)">
                <g id="Group">
                    <g id="48ChatBubbles_Icons/Pin" transform="translate(0.000000, 2.000000)">
                        <g id="Group-2" transform="translate(15.000000, 11.000000)">
                            <g id="Group-16" fill-rule="nonzero" stroke-width="1.35">
                                <path d="M9.00013007,24.2858984 C9.37453594,23.1048928 9.94529943,21.350912 10.3734598,20.4090402 C11.1341524,18.7356604 12.0791487,17.3831254 13.2959137,16.3954715 C15.9341607,14.253994 17.325,11.2771723 17.325,9.06060606 C17.325,4.42835337 13.5967527,0.675 9,0.675 C4.40324733,0.675 0.675,4.42835337 0.675,9.06060606 C0.675,11.2789243 2.06815734,14.260318 4.7087813,16.4047416 C5.92394161,17.3915609 6.8677757,18.7419142 7.62743233,20.4119302 C8.0556181,21.3532464 8.62596364,23.1055819 9.00013007,24.2858984 Z" id="Oval-11"></path>
                                <ellipse id="Oval-12" cx="9" cy="8.46511628" rx="2.325" ry="2.34825581"></ellipse>
                            </g>
                        </g>
                    </g>
                </g>
            </g>
        </g>
    </g>
</svg>