<svg width="60" height="60" viewBox="0 0 60 60" fill="none" xmlns="http://www.w3.org/2000/svg">
<circle cx="30" cy="30" r="30" fill="#E6A3E7"/>
<path d="M30 24.5L32.7047 25.2376C44.0968 28.3446 52 38.6918 52 50.5V50.5V50.5C46.5913 56.545 38.8639 60 30.7525 60H30V60C21.7009 60 13.7077 56.5247 8 50.5V50.5V50.5C8 39.1845 15.3228 29.17 26.1056 25.7391L30 24.5Z" fill="#C700CB"/>
<path d="M42.5 17C42.5 23.9036 36.9036 29.5 30 29.5C23.0964 29.5 17.5 23.9036 17.5 17C17.5 10.0964 23.0964 4.5 30 4.5C36.9036 4.5 42.5 10.0964 42.5 17Z" fill="#C700CB"/>
</svg>
